<?xml version="1.0" encoding="UTF-8"?> <!-- Generator: Adobe Illustrator 24.2.1, SVG Export Plug-In . SVG Version: 6.00 Build 0) --> <svg xmlns="http://www.w3.org/2000/svg" xmlns:xlink="http://www.w3.org/1999/xlink" version="1.1" id="Ebene_1" x="0px" y="0px" width="250px" height="144.5px" viewBox="0 0 250 144.5" style="enable-background:new 0 0 250 144.5;" xml:space="preserve"> <style type="text/css"> .st0{fill:#FFFFFF;} .st1{fill:#E4003A;} </style> <g> <g> <path class="st0" d="M23,66.1c-3.6,3.1-8.1,2.9-9.4,2.9H0V1h12.9c1.1,0,5.9-0.4,8.8,2.9C23.6,6.1,24,9,24,11.7v10.1 c0,0.5,0.1,2.9-0.5,4.6c-1.5,4.8-6.1,5.4-7.5,5.7c1,0.1,4.7,0.5,7.2,2.6c3.1,2.6,3.2,6.5,3.2,10v11.7C26.4,60,26,63.4,23,66.1z M19.4,12.5c0-1.9-0.2-3.2-0.5-4C17.6,5.1,13.7,5,10.7,5h-6v25.3h4.6c2.6,0,3.3-0.2,4.6-0.6c5.8-1.7,5.4-7.3,5.4-9V12.5z M21.7,44.6c0-1.6-0.1-3.2-0.6-4.6c-1.8-5-6.9-5.6-11.5-5.6H4.8v30.5h8c3.4,0,4.9-0.6,6.3-1.5c2.2-1.7,2.6-4,2.6-9.1V44.6z"></path> <path class="st0" d="M60.7,62.4c-2.8,7.5-10.6,7.8-12.7,7.8c-1.1,0-5.4-0.1-8.6-2.5c-0.9-0.6-1.5-1.3-2.1-2.2 c-2.9-3.9-2.7-8.1-2.7-12.5V1h4.6v52.7c0,4.4,0.4,6.7,1.5,8.6c1.1,1.6,3.3,3.5,7.5,3.5c0.7,0,3.6,0,5.6-1.6C57.1,61.7,57,58,57,51 V1h4.7v54.6C61.7,57.8,61.5,60.2,60.7,62.4z"></path> <path class="st0" d="M95.6,65.1c-1.6,2.4-5,5-11.6,5c-2.6,0-5.7-0.5-7.8-1.6c-0.5-0.3-1.3-0.8-2.2-1.6c-1.5-1.3-2.6-2.9-3.4-4.9 c-0.7-1.9-0.8-3.5-0.8-5.5v-9.6h4.7v5.5c0,1.4-0.1,2.8,0,4.2c0.2,3.3,1.3,9.4,10,9.4c0.8,0,2.9,0,4.9-1.3c2.4-1.4,3.8-4.3,3.8-9.9 c0-5.3-1.2-7.7-2.4-9.7c-2.5-3.9-7-8.2-7.7-8.8c-4-3.9-6.4-6.6-7.8-8.6c-1.6-2.2-3.9-6.1-3.9-12.6c0-0.4,0-3.2,0.4-5.1 C72.6,6.1,74.8,0,84.3,0c1.1,0,4.9,0,8,1.9c4.7,3.1,4.7,8.9,4.7,13.8v4.9h-4.6v-6.1c0-2.4,0-3.2-0.3-4.5c-0.4-2.3-1.8-6-7.7-6 c-0.7,0-2.9,0-4.8,1.2c-2.1,1.3-3.4,4-3.4,9.1c0,6.5,1.7,9.1,5.9,13.8c1.4,1.7,3,3.4,4.6,5.1c2.4,2.4,4.8,4.7,6.9,7.4 c3.4,4.2,4.3,8,4.3,13.4C98,59.7,97,63,95.6,65.1z"></path> <path class="st0" d="M106.1,69V1h4.9v68H106.1z"></path> <path class="st0" d="M139.8,69L124,4.7l0.4,64.3h-4.5V1h6.9l16.3,65.4L142.4,1h4.6v68H139.8z"></path> <path class="st0" d="M160.9,5.2v26.2h16v4.1h-16v29.2h19.4V69h-24V1h24.1v4.2H160.9z"></path> <path class="st0" d="M212,65.1c-1.6,2.4-5,5-11.6,5c-2.6,0-5.7-0.5-7.8-1.6c-0.5-0.3-1.3-0.8-2.2-1.6c-1.5-1.3-2.6-2.9-3.4-4.9 c-0.7-1.9-0.8-3.5-0.8-5.5v-9.6h4.7v5.5c0,1.4-0.1,2.8,0,4.2c0.2,3.3,1.3,9.4,10,9.4c0.8,0,2.9,0,4.9-1.3c2.4-1.4,3.8-4.3,3.8-9.9 c0-5.3-1.2-7.7-2.4-9.7c-2.5-3.9-7-8.2-7.7-8.8c-4-3.9-6.4-6.6-7.8-8.6c-1.6-2.2-3.9-6.1-3.9-12.6c0-0.4,0-3.2,0.4-5.1 C189,6.1,191.2,0,200.8,0c1.1,0,4.9,0,8,1.9c4.7,3.1,4.7,8.9,4.7,13.8v4.9h-4.6v-6.1c0-2.4,0-3.2-0.3-4.5c-0.4-2.3-1.8-6-7.7-6 c-0.7,0-2.9,0-4.8,1.2c-2.1,1.3-3.4,4-3.4,9.1c0,6.5,1.7,9.1,5.9,13.8c1.4,1.7,3,3.4,4.6,5.1c2.4,2.4,4.8,4.7,6.9,7.4 c3.4,4.2,4.3,8,4.3,13.4C214.4,59.7,213.4,63,212,65.1z"></path> <path class="st0" d="M247.6,65.1c-1.6,2.4-5,5-11.6,5c-2.6,0-5.7-0.5-7.8-1.6c-0.5-0.3-1.3-0.8-2.2-1.6c-1.5-1.3-2.6-2.9-3.4-4.9 c-0.7-1.9-0.8-3.5-0.8-5.5v-9.6h4.7v5.5c0,1.4-0.1,2.8,0,4.2c0.2,3.3,1.3,9.4,10,9.4c0.8,0,2.9,0,4.9-1.3c2.4-1.4,3.8-4.3,3.8-9.9 c0-5.3-1.2-7.7-2.4-9.7c-2.5-3.9-7-8.2-7.7-8.8c-4-3.9-6.4-6.6-7.8-8.6c-1.6-2.2-3.9-6.1-3.9-12.6c0-0.4,0-3.2,0.4-5.1 c0.7-3.9,2.9-9.9,12.4-9.9c1.1,0,4.9,0,8,1.9C249,5,249,10.8,249,15.7v4.9h-4.6v-6.1c0-2.4,0-3.2-0.3-4.5c-0.4-2.3-1.8-6-7.7-6 c-0.7,0-2.9,0-4.8,1.2c-2.1,1.3-3.4,4-3.4,9.1c0,6.5,1.7,9.1,5.9,13.8c1.4,1.7,3,3.4,4.6,5.1c2.4,2.4,4.8,4.7,6.9,7.4 c3.4,4.2,4.3,8,4.3,13.4C250,59.7,248.9,63,247.6,65.1z"></path> </g> <g> <path class="st0" d="M11.7,92.5c-1.7,2-4.4,2.1-5.8,2.1H2.6v14.8H0.3V77h5c2,0,4.2-0.1,5.8,1.3c1.7,1.4,1.7,3.5,1.7,5.9v3.7 C13,89.6,12.9,91,11.7,92.5z M10.8,85c0-2.9,0-4.4-1.3-5.4C8.6,79,7.9,78.9,6,78.9H2.6v13.8h3.7c1.2,0,2.5-0.1,3.5-1.1 c1.2-1.2,1.1-3.4,1.1-3.7V85z"></path> <path class="st0" d="M17,109.3V77h2.2v30.4h8.4v2H17z"></path> <path class="st0" d="M43.5,106.2c-1.3,3.6-5,3.7-6.1,3.7c-0.5,0-2.6,0-4.1-1.2c-0.4-0.3-0.7-0.6-1-1.1c-1.4-1.8-1.3-3.9-1.3-6V77 h2.2v25.1c0,2.1,0.2,3.2,0.7,4.1c0.5,0.8,1.6,1.7,3.6,1.7c0.3,0,1.7,0,2.7-0.8c1.5-1.1,1.5-2.9,1.5-6.2V77H44v26 C44,104,43.9,105.2,43.5,106.2z"></path> <path class="st0" d="M60.3,107.5c-0.8,1.1-2.4,2.4-5.5,2.4c-1.2,0-2.7-0.2-3.7-0.8c-0.2-0.1-0.6-0.4-1.1-0.8 c-0.7-0.6-1.2-1.4-1.6-2.3c-0.3-0.9-0.4-1.7-0.4-2.6v-4.6h2.2v2.6c0,0.7,0,1.3,0,2c0.1,1.6,0.6,4.5,4.8,4.5c0.4,0,1.4,0,2.3-0.6 c1.1-0.7,1.8-2.1,1.8-4.7c0-2.5-0.6-3.7-1.1-4.6c-1.2-1.8-3.3-3.9-3.7-4.2c-1.9-1.8-3-3.1-3.7-4.1c-0.8-1.1-1.8-2.9-1.8-6 c0-0.2,0-1.5,0.2-2.4c0.3-1.8,1.4-4.7,5.9-4.7c0.5,0,2.3,0,3.8,0.9C61,78.9,61,81.6,61,84v2.3h-2.2v-2.9c0-1.1,0-1.5-0.1-2.2 c-0.2-1.1-0.9-2.8-3.7-2.8c-0.3,0-1.4,0-2.3,0.6c-1,0.6-1.6,1.9-1.6,4.3c0,3.1,0.8,4.3,2.8,6.6c0.7,0.8,1.4,1.6,2.2,2.4 c1.1,1.1,2.3,2.2,3.3,3.5c1.6,2,2.1,3.8,2.1,6.4C61.5,104.9,61,106.5,60.3,107.5z"></path> </g> <g> <path class="st1" d="M97.1,144.5V116H85.7v28.5H69.3v-68h16.4V104h11.5V76.5h16.5v68H97.1z"></path> <path class="st1" d="M152.2,144.5l-2.3-15.5h-12.6l-2.4,15.5h-16.1l13.8-68h22l13.8,68H152.2z M143.7,87.3l-4.6,30.3h9.2 L143.7,87.3z"></path> <path class="st1" d="M203.3,144.5l-13.8-33.3v33.3h-16.3v-68h16.3v30.8l12.5-30.8h16.8l-13.7,32.2l15.5,35.9H203.3z"></path> </g> <path class="st1" d="M60,129.4H49.6l-1.1,15.1h15.1l0.7-10.3C64.6,131.5,62.6,129.4,60,129.4"></path> </g> </svg> 