<?xml version="1.0" encoding="UTF-8"?> <!-- Generator: Adobe Illustrator 24.2.1, SVG Export Plug-In . SVG Version: 6.00 Build 0) --> <svg xmlns="http://www.w3.org/2000/svg" xmlns:xlink="http://www.w3.org/1999/xlink" version="1.1" id="Ebene_1" x="0px" y="0px" width="600px" height="75px" viewBox="0 0 600 75" style="enable-background:new 0 0 600 75;" xml:space="preserve"> <style type="text/css"> .st0{fill:#1D1E1C;} </style> <g> <path class="st0" d="M65.7,23l0.4-0.7l0.1-0.1l0.4-0.6l1-1.6l0.4-0.6l0,0l0.1-0.3l0.5-0.7c0.3-0.5,0.4-0.6,0.4-0.7l0.5-0.9l0.7-1.2 l0.2-0.2l0.1-0.2l0.1-0.3l0.6-0.8l0.5-0.8l0.5-0.7l-0.2,0c-0.4,0.3-1.1,1-1.2,1.1c-0.7,0.5-1.4,0.9-2.1,1.3l-1,0.9l-0.1,0.1 L67.5,16l-1.7,0.9l-0.3,0.2l-0.1,0.3L65,17.6l-0.1,0l-0.1,0.1l-0.3,0.2l-0.3,0l-0.3,0l-0.2,0.1l-0.1,0.2l-0.2,0.2l-0.7,0.2 l-0.4,0.2l-0.6,0.3h-0.1l-0.3,0.2l-0.6,0.4l-1.1,0.6l-0.3,0.2l-1.1,0.5L58,21.2l-0.3,0.2L56.5,22l-0.3,0.2l-0.4,0.2l-0.5,0.2 l-0.2,0l-0.5,0.2l-0.4,0.2l-0.7,0.4L53,23.7l-0.3,0c-0.3,0.1-0.5,0.2-0.7,0.3l0,0l-0.4,0.2l-0.5,0.3l-0.2,0.2l-0.5,0 c-1.5,0.6-2.9,1.2-4.4,1.7c-0.5,0.2-1.3,0.5-2.2,0.8l-0.6,0.3l-1.8,0.6l-2.6,0.5c-1.3,0.3-2.6,0.6-3.8,0.7l-0.2,0l-0.5,0h0 c-0.2,0-0.4,0-0.6,0l-0.1,0h-0.5l0,0h-0.1l0-0.1c-0.5,0-1-0.1-1.4-0.2c-0.3-0.1-0.5-0.2-0.7-0.4L30.6,29h-0.1l-0.2-0.2l-0.2-0.2 l0-0.3l0,0c-0.2-0.2-0.3-0.3-0.4-0.5l0,0c0,0-0.1-0.1-0.1-0.1l-0.1-0.1l-0.1-0.1l-0.1-0.2l-0.1,0l0-0.1h0L29.1,27l-0.1-0.1 c0,0,0,0-0.1,0h-0.1l0-0.1c-0.1-0.1-0.1-0.1-0.1-0.3c0.1-0.4,0.1-0.8,0.2-1.3l0-0.3L29,24l0-0.2l0-0.3l-0.2-0.2l-0.1-0.1l0-0.2 l0.1-0.2h0.3l0-0.2l0.1-0.2l0,0c0.1-0.4,0.2-0.8,0.4-1.1l0.3-0.6l0-0.2l0.1,0l0.3-0.4h0l0-0.1l0.1-0.2l0.1-0.4l0.4-0.5h0l0-0.1 l0.2-0.1l0.1-0.2l-0.1,0l0.1-0.1l0,0.1l0.4-0.3h0.1l0.2-0.1L32,18l0-0.1l0.2,0l0.2-0.1l0.4-0.2l0.2-0.4l0.2-0.4l0.4-0.2l0.6-0.3 c1-0.8,2-1.5,3-2.2l0.1-0.1l0.3-0.2l0.1,0l0.3-0.2l0-0.1l0.2-0.1h0.2l1.8-1.1l0,0l0.1-0.1l0.5-0.3l0,0l0.3-0.2l0.2-0.2h-0.1 l0.1-0.2l0.2-0.1h0l0,0l0,0.1l0.1-0.1l0.2,0l0.1,0l0.1-0.1l0,0H42l0.8-0.3l1.3-0.7l0-0.1l0.1,0l0.3,0L45,9.4l0.3-0.2h0.1l0.6-0.3 l0.6-0.3l0.1-0.1h0.2l0.3-0.1l1-0.5l0.2-0.1l0.1-0.1h0l0.8-0.4h0.2l0.1-0.1l0.3-0.2l0.2,0l0.9-0.4l0.3-0.1l0.3-0.2l0.6-0.2 c1.2-0.5,2.1-0.9,2.8-1.2l0.2,0l0.3-0.2h0l1-0.5L56.8,4l0.3-0.1l0.3,0h0.3l0.2-0.1h0.2c0,0,0,0,0.1,0l0.1-0.2l0.1-0.1l0.3-0.1h0.2 l0.1-0.1h0.4l0.2-0.1l1.3-0.4l0.6-0.3l0.1,0l0.8-0.2h0.1l0.3-0.1l0.4-0.1l0,0h0.1l0.5-0.1L64,1.9l0.1-0.1h0.1l0,0l0.1,0l0-0.1l0,0 l0.2,0l0,0l0,0l0,0.1h0.5l0.3-0.1l0.1,0l0.3,0l0,0l0.1,0l0.2,0l0.4,0l0.8,0.2l0.6-0.1l0.3,0.1l0.1,0h0.1l0,0h0l0,0.1l0.1,0L69,1.7 l0,0.2c0.2,0,0.4,0.1,0.5,0.1c0.2,0,0.2,0.1,0.2,0.2l0,0.1l0.1,0.1l0.1,0.3l0,0.6l0.2,0.5l0.2,1l-0.2,0.7l-0.9,0.7l-0.2,0.1h-0.3 l-0.5-0.5l0.2-0.7l0-0.1l-0.1-0.1l0-0.3l0.2-0.5l0.1-0.5l0-0.4l0-0.5l-0.2-0.1l-0.4-0.1h-0.3l-0.2,0l-0.4-0.2L66.7,2l0,0l-0.1,0 l0,0h0l0,0l-0.3,0.2l-0.5,0.2l-0.3,0.1h-0.1l-0.1,0l-0.1,0l-0.2-0.1l-0.2,0l-0.3-0.1l-0.3,0.2l-0.1,0h-0.1l-0.3,0.1l-0.1,0.1 l-0.2,0.2l-0.3,0.1l-0.2,0l-0.2-0.1l-1.4,0.5l-0.1,0.1l-0.1,0l-0.8,0.3l-0.3,0.2l-0.1,0l-0.6,0.2l-0.2,0l-0.1,0l0,0L59,4l-1.1,0.3 l-0.6,0.3l-0.6,0.1l0,0.1l-0.8,0.3l-0.2,0.1l-0.3,0.1l-0.4,0.1l-0.3,0.1l-0.1,0.1l-0.1,0L53.5,6l-0.8,0.4l-0.6,0.4h-0.2l-0.6,0.3 l-1.9,0.9l-0.9,0.5l-0.9,0.4l-0.1,0.1l-1.1,0.5l-0.3,0.3l-0.4,0.2L45.6,10l-0.4,0.3l-0.5,0.3l-0.1,0l-0.2,0.2l-1.5,0.8 c0,0,0,0-0.1,0.1l0,0.1l0-0.1c0,0-0.1,0.1-0.1,0.1l-2.4,1.5l-0.4,0.4l-0.3,0.2h0l-1.1,0.8l-0.1,0.1L37.8,15h-0.1 c-0.2,0.2-0.5,0.4-0.7,0.6l-0.4,0.5l-0.2,0l-0.1,0.2l0,0.1l-0.1,0l0,0.1l-0.2,0.2L35.5,17l-0.2,0.2l-0.5,0.2l-0.2,0.1 c-0.9,0.7-1.7,1.5-2.5,2.3l0,0.2l0,0.2l-0.2,0l-0.1,0.2l-0.3,0.2l-0.5,0.5l-0.1,0L30.4,22c0,0,0,0,0,0.1l-0.1,0.1l-0.2,0.3 l-0.1,0.2l-0.2,0.4l-0.2,0.2l-0.1,0.2l0,0l0,0L29.5,24l-0.2,0.4c-0.1,0.2-0.1,0.5-0.1,0.7l0,0l-0.1,0.1l0,0.2l0,0.1l0,0.2 c0,0.4,0.1,0.7,0.3,1l0.2,0l0.1,0l0.1,0.1h0l0,0l0.1,0.2l0.1,0.1l0.1,0.2l0.1,0.1l0.4,0.2l0-0.1h0.2l0.2,0.1l0,0.1l0,0.1 c0.2,0.1,0.5,0.2,0.7,0.2l0.3,0l0.2,0h0.1l0.2,0.1l0,0c0.5,0.1,1,0.1,1.6,0.1h0.1l0.1-0.2l0.2,0l0.3,0l0.4,0l0.5,0.1 c0.1,0,0.2,0,0.3,0l0.7-0.1l0.3,0l0.4,0l0.1,0l0.3-0.1c0.8-0.1,1.6-0.3,2.4-0.5l0.1-0.1l0.3,0l0.1-0.1l0.1,0c1-0.3,2-0.5,3-0.8 l0.3-0.2l0.1-0.1l0.8-0.1l0.5-0.2l0.8-0.2c1.5-0.5,3-1.2,4.5-1.8l0.1,0l0.1-0.1h0.1l1.6-0.8h0.1l0.3-0.2l0.3-0.1l1.6-0.8l0.6-0.3 l0.1-0.1l0.7-0.3l0.2-0.2l0.4-0.1l0.3-0.2l0.3-0.2l0.2-0.1l1.1-0.6l0.4-0.2l1.5-0.7l0.2-0.1l0.7-0.3l0.1-0.1l0.1,0l0.1,0l2-1.2 l0.3-0.2l0.2,0l1.6-1l0-0.1l0.1,0l0-0.1l0.3-0.1l0.4-0.3c0.3-0.2,0.6-0.4,0.9-0.6l0.4-0.3l0-0.1l0.3-0.1l1.4-1l0.4-0.5l0.2-0.3 l0.4-0.2l0.1-0.3l1.2-1l0.3-0.4l0.5-0.5l0.5-0.6l1.5-1.3l0.7-0.8l0.4-0.6L77,6l0.5-0.4l0.3-0.1l0.1-0.1l0.3-0.2 c0.4-0.3,0.7-0.5,1-0.6c0.1,0,0.2,0,0.3,0.1l0.1-0.1l0.2,0.1l0.1,0.2l-0.3,0.8L79,6.2l0,0.3l-0.1,0.3l-0.4,0.4l-0.1,0.3l-0.1,0 l0,0.3H78l-0.2,0.1l-0.1,0.2l-0.1,0.2l-0.3,0l-0.5,0.5l0,0.1l-0.6,0.8l-0.3,0L75.8,10l0,0.1l-1,1.5l0,0.2L74.5,12l-0.1,0.3 l-0.1,0.3l-0.1,0.1l-0.4,0.3l-0.1,0.2l-0.4,0.3l-0.7,1.1l-0.3,0.6l-0.4,0.5l-0.2,0.6l-0.4,0.4L70.9,17l-0.1,0l-0.9,1.3l-0.3,0.3 l-1.3,1.8l-0.5,0.8h0l-0.3,0.6L67,22.3c-0.6,1-1.4,2.3-1.7,2.7L65,25.6l0,0.2L64.9,26l-0.3,0.2l-0.9,1.4l-0.1,0.1 c-0.1,0.2-0.3,0.3-0.4,0.5l0.4-0.1c1.9-0.4,3.5-0.7,4.4-0.7c0.1,0,0.2,0,0.3,0l1-0.2h0.5l1,0.1l0.1,0l1.2,0h0.3l2.2,0.1h0.5l0.2,0 l0.5,0l0.2,0l0,0.1l-0.1,0.1l-0.1,0h-0.8l-0.1,0l-1.7-0.1l0,0l-0.2,0h-0.5c-0.1,0-0.2,0-0.3,0l-0.1,0h-0.2l-1.8,0l-0.1,0l-0.4,0 l-0.3-0.1c-1.1,0-2.7,0.3-4.5,0.6l-2.6,0.6l-1.5,2.2l-2.6,3.1l-0.3,0.3c0,0,0,0-0.1,0.1l-0.2,0.3l-0.1,0.1 c-1.1,1.3-2.3,2.5-3.4,3.8l0,0l-1.2,1.3l-0.2,0.1l-1.2,1.1L51.3,42l-0.2,0.2l-0.5,0.5L50.3,43l-1.1,0.8l-0.2,0.3l-0.8,0.7 c-2,1.8-2.1,1.9-3.2,2.8l-1,0.9l-0.3,0.3l0,0h0l-2.3,1.8h0l-3.8,3l-0.2,0.3L37.1,54H37c-1.8,1.4-3.7,2.8-5.4,3.9l-0.1,0.2l-0.2,0.1 l-2,1.5h0l0,0L29,59.8h-0.2l-0.7,0.4l-0.1,0.1l-0.2,0.2l-0.7,0.3l-0.4,0.3l-0.2,0.1l-0.1,0.1l-0.1,0.1h-0.1l0,0h-0.1L22,63.7 l-0.3,0c-2.1,1.1-4.2,2.2-6.5,3c-0.7,0.3-1.4,0.5-2.2,0.7c-0.4,0.1-0.8,0.3-1.2,0.4c-0.5,0.1-0.6-0.1-1,0C10.1,68,9,68.1,8.1,68.1 c-0.4,0.2-0.8,0.1-1.3,0c-0.2,0-0.4-0.1-0.6-0.2c-1.6-0.3-3-0.9-4.4-2l-0.4-0.3l-0.1,0l-0.2-0.1l-0.1-0.1l0,0H1.1l0,0l0-0.1l0-0.1 L0.9,65l-0.1-0.5L0.5,64l-0.1-0.3l0-0.2l-0.1-0.6l-0.1-0.3l-0.1,0.1L0,62.7l0-0.3l0,0l0.1,0l0-0.1l0.1-0.2l0-0.1L0,62.1l0-0.1l0,0 l0.2-1l0.2-0.5c0.1-0.6,0.3-1.2,0.5-1.8l0-0.3L1,58.1l0.1-0.3l0.2-0.3l0.1-0.2h0c0.5-1.3,1.3-2.3,2-3l0.2-0.2l0.8-0.8l0.1-0.2 l0.3-0.4l0.6-0.3l0.3-0.3l0.4-0.6l0.3-0.1l2-2l0.3-0.1L8.8,49l0.5-0.4c0.4-0.3,0.6-0.5,1.1-1l0.4-0.3l1.2-0.8l0.4-0.5l0.4-0.2 l0.8-0.3c0.7-0.4,0.8-0.4,0.8-0.4l0.3-0.2l2.1-1.2l0.8-0.4l1.6-0.9l0.2,0l0.1-0.1l0.8-0.2c2-1,2.4-1.2,3.3-1.7l0.3-0.1 c0.6-0.3,1.2-0.6,1.8-0.8l2.8-1.1l0.5-0.3l1-0.3l0.5-0.2l2.4-0.9L35,36c0.2,0,0.3-0.1,1.1-0.5l0.6-0.2h0.4c0.1,0,0.2-0.1,0.9-0.3 c0.6-0.2,0.8-0.3,1.7-0.5c0.2-0.1,0.5-0.1,0.7-0.2l0.4-0.3l0.3,0l0.9-0.2l4.5-1.3l0.3-0.2l0.3,0l2.9-0.8l1.2-0.4l0.5-0.1l0.9-0.5 l0.7-0.1l1.3-0.4l2.1-0.5l1.9-0.4l1.1-0.3l1.6-0.2c0.1,0,0.2,0,0.3-0.1l0.4-0.1l0.4-0.5l0.4-0.5l0.5-0.7l0.8-1.2l0.1-0.3l0.7-1 l0.2-0.4C65.6,23,65.6,23,65.7,23z M50.9,31.9l-2.4,0.8l-1.7,0.5l-1.6,0.5L43.6,34l-1.9,0.7L40.9,35h-0.3l-0.1,0l-0.7,0.3l-1.7,0.5 L36.8,36l-1.2,0.3c-0.1,0-0.2,0.1-0.6,0.2L33.7,37l-0.2,0.3l-1.6,0.3c-0.2,0-0.3,0.1-0.8,0.3l-0.8,0.2L30,38.3l-0.8,0.2 c-0.7,0.3-1.4,0.5-2.1,0.8l-0.9,0.7l-0.2,0l-0.9,0.3l-1.5,0.6L19.9,43l-1.3,0.8l-0.2,0.4l-0.8,0.3l-1.7,0.9L13.5,47l-0.2,0.2 l-0.4,0.1l-0.3,0.3L11.9,48l-0.3,0.2c-0.4,0.2-0.4,0.3-1,0.7l-0.8,0.7c-1.2,1-2.5,2-3.6,3.1l0,0.1L5.7,53l-0.2,0.3l-0.2,0.3l-0.1,0 l-0.7,0.9c-0.8,1-1.5,2.1-2,3.1l0,0.5l0,0.1l-0.3,0.2L2,58.6c-0.2,0.4-0.3,0.8-0.4,1.1l0.1,0.2l0,0.4l-0.1,0.1l-0.1,0.1l-0.1,1.5 l0,0.1l0,0.1l0,0.2c0.1,0.4,0.1,0.7,0.2,1l0,0l0.3,0.3l0.2,0.1l0,0.1l0,0l0,0.1l0,0.2l0,0.2l0,0.3l0.5,0.5l0.2,0l0.2,0.2l0,0.1 c0.8,0.6,1.8,1,3.2,1.3L6.9,67h0.4c0.2-0.1,0.8-0.1,1,0c0.4-0.1,0.8,0,1.1-0.3c0.2,0.1,0.6-0.1,1,0c0.5-0.1,1-0.3,1.5-0.2 c0.5-0.1,0.9-0.4,1.4-0.4c0.1,0.3,0.5,0,0.6,0.3c0.4-0.5,1-0.8,1.5-1.1c0.9-0.4,1.9-0.5,2.9-0.8l1.7-0.8c0.5-0.1,0.9-0.3,1.4-0.6 c0.2,0,0.4,0,0.6-0.2c0.5-0.3,0.9-0.8,1.5-0.8c0.2-0.1,0.3-0.5,0.6-0.3l1.8-1.1l0.1-0.2l0.5-0.3l0.1-0.1l0.1,0 c1-0.7,2.1-1.3,3.6-2.3l3.1-2.2l2.3-1.6l1.1-0.8l0.1,0l1.8-1.4l1.1-0.9c0.2-0.1,0.4-0.3,2.7-2.3l4.8-4.2l2.8-2.8l2.5-2.3l0.5-0.5 c0.3-0.4,0.7-0.7,1-1l2-2.1l0.4-0.4l0.1-0.2l0.7-0.9l2.1-2.5c0.1-0.1,0.2-0.2,0.2-0.3l0.1-0.1l0.3-0.5l0.2-0.4l1-1.1l-2.1,0.5 l-1.4,0.5l-1,0.5l-0.2,0.1l-0.3-0.1l-0.6,0.1l-2.3,0.5L50.9,31.9z"></path> <path class="st0" d="M71.2,33.9l0,0.2l-0.2,0.2l-0.1,0.2c0,0,0,0,0,0.1l0,0.1l-0.2,0.2l-0.1,1c0,0-0.1,0.6,0,0.8 c0.2,0.3,0.1,0.3,1.1,0.6l0.7,0.2h0.5l0.6-0.1l3.1-0.7l0.6-0.3l1.7-0.5l0.3-0.2l0.2-0.1h0.1l2.6-1h0.2l0.3-0.2l0.4-0.1l1.4-0.5 l0.2,0c1.5-0.6,2.2-1,3.7-1.7l0.9-0.3l0-0.1l0.3-0.1l0.8-0.3l0.8-0.3l0-0.1h0.1l0.5-0.3l0-0.1l2.3-1.4l0.2,0c0.3-0.2,0.6-0.4,1-0.6 c0.1-0.1,0.2,0,0.2,0l0,0l0.2-0.1l0.2,0l0.1,0.4L95.6,29l-0.4,0.1L95,29.2l-1,0.7l-0.2,0.3h-0.2l-0.2,0.1c-0.4,0.3-0.8,0.5-1.2,0.7 l0,0l-0.3,0.2l-0.2,0.1h-0.1L90.2,32l0,0.1l-0.2,0l-0.3,0.2l-0.1,0l-0.6,0.4l-1.6,0.7c-0.5,0.2-1,0.5-1.6,0.7l-0.1,0.1l-2.2,1 l-0.2,0.1l-0.1-0.1l-0.5,0.3l-0.5,0.1l-0.3,0.2h0c-0.6,0.3-1.1,0.5-1.7,0.7l-0.6,0.3l-1.3,0.6l-0.3,0.1l-0.5,0.1l-0.7,0.2l-0.4,0 L76,37.9L75.8,38l-0.6,0.1h-0.1c-0.5,0.2-1.1,0.3-1.7,0.4l-0.1,0.1l-0.2,0h0l-0.8,0.2l-0.2-0.1l-0.5,0.2l-1-0.2l-0.9-0.5l-0.4-0.6 l-0.2-0.5l-0.1-0.6l0.1-0.7l0-0.1l0-0.1l0-0.3l0.4-1l0.3-0.5l0.4-0.7l0.3-0.4l0.1-0.1l0.1-0.3l0.3-0.2l0.1-0.3l0.3-0.4l0.1-0.1 l0.5-0.2l0.2-0.2l0.3-0.1l0.4-0.2l0.1,0l0.4-0.4l0.4-0.3l0.3-0.4l0.2-0.2l0.2-0.2l0.2-0.1l0.3-0.1l0.1-0.1l0.2-0.2l0.3-0.1l0.2-0.1 c1-0.7,2-1.4,3-2l0.1-0.1l0.4-0.3l0.6-0.2c0,0,0.1,0,0.1,0l0.5-0.3l0.3-0.2l0.1,0l0.6-0.1c0.5-0.2,0.9-0.3,1.4-0.5l0.4-0.2h0.4 l0.3-0.1l0.1,0.1c0.3,0,0.7,0,1,0l0,0l0.1,0l0.1,0l0.1,0l0,0l0.2,0.1l0,0h0l0,0.1l0.1,0.1h0.1l0,0.1h0l0.2,0.1l0,0 c0.2,0.2,0.4,0.3,0.4,0.5l0.1,0l0,0.1h0l0,0l0,0.2l0,0.2L86.8,26l-0.1,0.1l0,0.2L86.5,27l-0.4,0.5L85.6,28l-0.5,0.3l-0.4,0.3 l-1.5,0.8L83,29.5l-0.3,0.1c-1,0.7-2.1,1.3-3.2,1.8l0,0.1L78.3,32l-0.6,0.4l-1.1,0.5l-0.8,0.3l-1.1,0.2l-0.7,0h-0.3l-0.2-0.1 L73.4,33l0.1-0.1l0.3-0.6l0.6-0.5l0.6-0.2h0.3l0.3,0.1l0.3,0.1h0.5l0.5-0.1l0.6-0.2h0.2l0.1-0.1l1.2-0.4l1.2-0.5l0.6-0.3l0.2-0.2 l0.6-0.2l0.1-0.2l0.6-0.2l0.2-0.2l0.6-0.4l2-1.6l0.2-0.2l0.1-0.3l0.1-0.1l0.3-0.6l0,0l0-0.1l-0.1-0.2l-0.2-0.3L85,25.1L84.7,25 h-0.5l-0.3,0l-0.2,0c-1.1,0.3-2.4,0.9-3.1,1.2l-0.5,0.3L80,26.6l-0.2,0.2l-0.2,0c0,0,0,0-0.1,0l0,0.1L79.3,27L79.2,27h-0.1l-1,0.5 l-0.5,0.4l-0.3,0.3l-0.4,0.1l-0.2,0.1c-0.4,0.3-0.7,0.5-1.1,0.8l-0.2,0.3L74.8,30l-0.3,0.3L74,30.7l-0.6,0.6L72.8,32l-0.1,0.1 l-0.3,0.4L72,32.9l-0.4,0.4L71.2,33.9z"></path> <path class="st0" d="M110.3,36.9l-0.1-0.3c0,0-0.1-0.1-0.1-0.1c-0.1-0.2-0.1-0.4,0-0.7l0-0.1l0.1-0.4l0.3-0.6l0.2-0.4L111,34 l0.4-0.4l0.5-0.6l0.4-0.4l0.1-0.1l0.1-0.2l0.4-0.5l0.1-0.3l0.1-0.2l0-0.2l-0.1,0.1h-0.1l-0.3,0.2l-0.2,0l-1,0.6l-0.4,0.3l-0.3,0.3 l-0.3,0.1l-0.3,0.1l-0.9,0.5l-0.2,0.3l-0.5,0.3l-0.3,0.1l-0.8,0.5l-0.9,0.6l-0.1,0.2l-0.2,0.2l-0.3,0.1l-0.1,0 c-0.2,0.1-0.3,0.2-0.5,0.3l-0.2,0.1l-0.3,0.2l-0.4,0.3l-0.3,0.1c-0.7,0.4-1.2,0.7-1.5,0.7h0l0,0l-0.2,0l-0.2-0.1l-0.2-0.2l-0.2-0.5 c-0.1-0.2-0.1-0.6,0.1-1.1l0.2-0.9l0.1-0.3l0.2-0.4l0.1-0.1l0.4-0.8l0.1-0.2l0.7-0.8l0.3-0.4l0.1-0.1l0.1-0.1l0.4-0.5l0.1-0.3 l0.2-0.2l1-1.4l0.9-1.3l0.6-0.7l0.9-1h-0.6l-0.8-0.1l-0.2,0l-0.1,0c0,0,0,0,0,0l-0.7,0.4l-0.5,0.4l-1.5,0.7l-0.4,0.3l-1.5,1 l-0.9,0.4l-0.1,0l-0.3,0.2l0,0l-0.2,0.1l-1.3,0.9L98.6,31l-0.4,0.4l-0.9,0.8l-0.7,0.4c-0.1,0.1-0.3,0.2-0.4,0.3L96,33.4l-0.1,0.1 l-0.4,0.4L95.1,34L95,34.2h-0.1l-0.1,0.1h-0.1l-0.2,0.2l-0.1,0l-1.2,1l-0.1,0.1L93,35.8L92.8,36l-0.1,0l-0.6,0.5l-0.3,0.3h0 l-0.5,0.4l0,0.1h-0.1l-0.1,0l-0.4,0.5l-0.6,0.4l-0.2,0.3l0,0.1l-0.4,0.4l-0.3,0.3l-0.2,0.4l-0.1,0.2l-0.2,0.1l-0.1,0l0,0l-0.1,0.1 l0,0.1L88,40.3l0,0.1l0,0.1l-0.1,0.1l0,0.1l-0.2,0.2l0,0l-0.1,0l-0.1,0L87.4,41h0l0,0L87,41.3l-0.5,0.1h-0.1l0,0l-0.3,0.1H86 l-0.2,0l-0.1-0.2l-0.3,0.1l-0.1,0L85.2,41l-0.1-0.2l0.1-0.3l0.2-0.4l0.1-0.1l0,0l0.1-0.2l0.2-0.2l0.2-0.2l0.5-0.8l0.9-0.9l0,0 l0.1-0.2l0.1,0l0.5-0.7l0.3-0.3l0.3-0.4l0.1-0.2l0.1-0.2l0.3-0.4l0-0.1l0.2-0.1l0.1-0.2l0.3-0.4l0.8-1l0.3-0.3l0.2-0.3l0.9-1 l0.2-0.3l0.8-1l0.5-0.7l0.1-0.2l0.2-0.4l0.1-0.3l0.2-0.2l0.2-0.1l0.1-0.3l0.1-0.1l0-0.1l0-0.1l0.1-0.1l0-0.2l0.1-0.2h0l0,0l0,0 l0.1-0.1l0.1-0.1h0.1l0,0l0.3-0.2l0.1,0l0.4-0.6l0.3-0.3l0.2-0.3l-0.1,0l0.2-0.3l0.1-0.1l0.1-0.2l0,0l0,0l0,0h0l0.1-0.4l0.1-0.4 l0.1-0.1l0.3-0.4l0.4-0.2l0.2,0.1l0-0.2l0.1-0.1h0.1l0.1-0.1l0.2,0l0.5,0h0.3l0.2,0.1l0.1,0.1l0,0.2l-0.2,0.3l0,0.2l-0.1,0.2 l-0.4,0.9L98,25.8l-0.5,0.3l0,0L97,27l0,0.1l-0.2,0.3l-0.1,0.3l-0.1,0.3L96.5,28l-0.2,0.1l0,0l-0.1,0l0,0.1H96L96,28.5l-0.2,0.2 l-0.3,0.2l-0.4,0.5l-0.3,0.3l-0.2,0.4l-0.1,0.1l-0.5,0.3l-0.5,0.6l-0.3,0.2l-0.5,0.6l0,0.1l-0.3,0.3L92,32.8l-0.2,0.4l-0.2,0.3 l-0.3,0.4L91.3,34L91,34.2l-0.4,0.5L90,35.4L89.5,36L89,36.6l-0.8,1.1l-0.3,0.8l-0.1,0.2l0,0H88l0.1-0.1h0.1l0.1,0l0.1-0.1l0.3-0.1 l0.1-0.2l0.2-0.3l0.2-0.1l0.4-0.2l0.4-0.3l0.4-0.4l0.1-0.1l0.1,0l0.3-0.2l0.5-0.5l1-0.8l0.3-0.2l0.9-0.7L94,34l0.1-0.1l0.3-0.1 l0.6-0.4l0.3-0.4l0.2,0l0.6-0.4l0.4-0.4l0.2-0.1l0-0.1l0.8-0.7l0.3-0.2l0.5-0.4l0.1-0.2l0.3-0.2l0.4-0.3l0.3-0.2l0.4-0.5l1.1-0.8 l0.4-0.3l0.3-0.3l0.8-0.3l0.6-0.3l0.2-0.3l0.1,0l0.2-0.1l0.2,0l0.3-0.3l0.1-0.1l0.3-0.1l0.4-0.3l0.5-0.2l0.7-0.4l0.1-0.2l0.6-0.3 l1.2-0.3l0.9-0.4l0.4-0.1l0.3-0.1l0.1-0.1l0.1,0h0.1l-0.1,0.1l0.4,0l0.2,0l0.2,0.4l-0.1,0.4l-0.1,0.2c-0.3,0.5-0.8,1-1.1,1.5 c-0.1,0.1-0.2,0.2-0.2,0.3l-0.4,0.3l-0.3,0.4l-0.7,0.7l-0.5,0.5l-0.1,0.1l-0.4,0.4l-1.3,1.8l-0.6,0.9l-0.5,1h0l0,0l-0.5,0.8 l-0.2,0.6l-0.1,0.2l-0.1,0.1l-0.1,0.3l0,0.1l0,0.3l0.1,0.3l0,0.2l0.1,0.2l0,0.1l0,0l0.6-0.3l0.2,0c0.3-0.2,0.5-0.4,0.8-0.6l0.2-0.2 l0.2-0.1c0.4-0.3,0.7-0.5,1-0.8l0.5-0.4l0.3-0.2l1.1-0.7l1.9-1.3l0.2-0.2l0.2-0.1l0.3-0.1h0.2c0.1-0.1,0.2-0.1,0.3-0.2l0.1-0.1 l0-0.1l0,0l0.1-0.1l0.1-0.1l0,0l0.2-0.1l0,0h0l0.1,0l0.1,0l0.1-0.1h0.1l0.3-0.1h0.3L113,30l0.1,0l0,0l0.3,0l0,0l0.2,0l0.2,0.1 l0.1,0.1l0,0.2l0,0h0l-0.1,0.1l-0.3,0.7l0,0.1l-0.2,0.5l-0.4,0.5l-0.3,0.6l-0.1,0.2l-0.3,0.3l-0.5,0.6l-0.2,0.3l-0.3,0.4l-0.2,0.3 l-0.2,0.4l0.1,0.5l0.3,0.2c0.3,0.2,0.9,0.3,1.4,0.2l0.3,0l0,0c0,0,0.1,0,0.1,0l0,0l0.1-0.1l0.5,0l0.4-0.2l0.3-0.1l0.2,0.1l0.1-0.1 l0,0l0.3,0l0.9-0.5l0.6-0.3l0.3,0l0.3-0.2h0.1l0.6-0.3l0.3,0l0.3-0.1l0.6-0.3l0.6-0.3l1.2-0.6l0.1-0.1l1.6-0.7l0.2-0.1l0.6-0.2 l0.2-0.1l0.6-0.3l0.3-0.2l0.2,0l0.1,0.2l-0.1,0.2l-0.2,0.1l-0.1,0l-0.2,0.1l-0.1,0.1l-0.1,0.1l-0.3,0l-1.3,0.8l-0.4,0.3h-0.1 l-0.5,0.2l-0.4,0.3l-0.2,0.1l-0.1,0.1l-0.1,0l-0.7,0.4l-0.3,0.1l-0.2,0.1l-0.3,0.2l-0.2,0.1l-0.2,0.1l-0.4,0.2l-0.1,0l-0.2,0.1 l-0.2,0.1l-0.4,0.2l-0.6,0.2l-0.8,0.3l-0.3,0.2l-0.2,0l-0.4,0.2c-0.1,0-0.3,0.1-0.4,0.2l-0.1,0l-0.2,0l-0.5,0.1l0,0h-0.1l-0.3,0.1 l-0.3,0h-0.2c-0.3,0.1-0.6,0.1-0.8,0.1h-0.4c-0.2,0-0.3,0-0.5-0.1h-0.1L110.3,36.9z"></path> <path class="st0" d="M123,33.9l0,0.2l-0.2,0.2l-0.1,0.2c0,0,0,0,0,0.1l0,0.1l-0.2,0.2l-0.1,1c0,0-0.1,0.6,0,0.8 c0.2,0.3,0.1,0.3,1.1,0.6l0.7,0.2h0.5l0.6-0.1l3.1-0.7l0.6-0.3l1.7-0.5l0.3-0.2l0.2-0.1h0.1l2.6-1h0.2l0.3-0.2l0.4-0.1L136,34 l0.2,0c1.5-0.6,2.2-1,3.7-1.7l0.9-0.3l0-0.1l0.3-0.1l0.8-0.3l0.8-0.3l0-0.1h0.1l0.5-0.3l0-0.1l2.3-1.4l0.2,0c0.3-0.2,0.6-0.4,1-0.6 c0.1-0.1,0.2,0,0.2,0l0,0l0.2-0.1l0.2,0l0.1,0.4l-0.2,0.1l-0.4,0.1l-0.2,0.1l-1,0.7l-0.2,0.3h-0.2l-0.2,0.1 c-0.4,0.3-0.8,0.5-1.2,0.7l0,0l-0.3,0.2l-0.2,0.1h-0.1l-1.4,0.7l0,0.1l-0.2,0l-0.3,0.2l-0.1,0l-0.6,0.4l-1.6,0.7 c-0.5,0.2-1,0.5-1.6,0.7l-0.1,0.1l-2.2,1l-0.2,0.1l-0.1-0.1l-0.5,0.3l-0.5,0.1l-0.3,0.2h0c-0.6,0.3-1.1,0.5-1.7,0.7l-0.6,0.3 l-1.3,0.6l-0.3,0.1l-0.5,0.1l-0.7,0.2l-0.4,0l-0.2,0.1l-0.2,0.1l-0.6,0.1H127c-0.5,0.2-1.1,0.3-1.7,0.4l-0.1,0.1l-0.2,0h0l-0.8,0.2 l-0.2-0.1l-0.5,0.2l-1-0.2l-0.9-0.5l-0.4-0.6l-0.2-0.5l-0.1-0.6l0.1-0.7l0-0.1l0-0.1l0-0.3l0.4-1l0.3-0.5l0.4-0.7l0.3-0.4l0.1-0.1 l0.1-0.3l0.3-0.2l0.1-0.3l0.3-0.4l0.1-0.1l0.5-0.2l0.2-0.2l0.3-0.1l0.4-0.2l0.1,0l0.4-0.4l0.4-0.3l0.3-0.4l0.2-0.2l0.2-0.2l0.2-0.1 l0.3-0.1l0.1-0.1l0.2-0.2l0.3-0.1l0.2-0.1c1-0.7,2-1.4,3-2l0.1-0.1l0.4-0.3l0.6-0.2c0,0,0.1,0,0.1,0l0.5-0.3l0.3-0.2l0.1,0l0.6-0.1 c0.5-0.2,0.9-0.3,1.4-0.5l0.4-0.2h0.4l0.3-0.1l0.1,0.1c0.3,0,0.7,0,1,0l0,0l0.1,0l0.1,0l0.1,0l0,0l0.2,0.1l0,0h0l0,0.1l0.1,0.1h0.1 l0,0.1h0l0.2,0.1l0,0c0.2,0.2,0.4,0.3,0.4,0.5l0.1,0l0,0.1h0l0,0l0,0.2l0,0.2l-0.1,0.3l-0.1,0.1l0,0.2l-0.2,0.6l-0.4,0.5l-0.4,0.4 l-0.5,0.3l-0.4,0.3l-1.5,0.8l-0.2,0.2l-0.3,0.1c-1,0.7-2.1,1.3-3.2,1.8l0,0.1l-1.3,0.6l-0.6,0.4l-1.1,0.5l-0.8,0.3l-1.1,0.2l-0.7,0 h-0.3l-0.2-0.1l-0.1-0.2l0.1-0.1l0.3-0.6l0.6-0.5l0.6-0.2h0.3l0.3,0.1l0.3,0.1h0.5l0.5-0.1l0.6-0.2h0.2l0.1-0.1l1.2-0.4l1.2-0.5 l0.6-0.3l0.2-0.2l0.6-0.2l0.1-0.2l0.6-0.2l0.2-0.2l0.6-0.4l2-1.6l0.2-0.2l0.1-0.3l0.1-0.1l0.3-0.6l0,0l0-0.1l-0.1-0.2l-0.2-0.3 l-0.3-0.1l-0.3-0.1H136l-0.3,0l-0.2,0c-1.1,0.3-2.4,0.9-3.1,1.2l-0.5,0.3l-0.1,0.1l-0.2,0.2l-0.2,0c0,0,0,0-0.1,0l0,0.1l-0.3,0.1 L131,27h-0.1l-1,0.5l-0.5,0.4l-0.3,0.3l-0.4,0.1l-0.2,0.1c-0.4,0.3-0.7,0.5-1.1,0.8l-0.2,0.3l-0.6,0.5l-0.3,0.3l-0.5,0.4l-0.6,0.6 l-0.6,0.7l-0.1,0.1l-0.3,0.4l-0.3,0.4l-0.4,0.4L123,33.9z"></path> <path class="st0" d="M151.3,35.8l-0.4,0.3l-0.6,0.3l-0.4,0.1l-0.2,0.1l0,0.1l-0.1,0.1l-0.6,0.2l-0.4,0.2l0,0.1l-0.1,0.1l-0.3,0.1 l-0.6,0.3l-0.3,0.1l-0.7,0.4l-0.3,0.1l-0.3,0.1l-0.5,0.3l-0.4,0.2l-0.3,0.1l-0.7,0.1l-0.6,0.3l-0.5,0.1l-0.7,0l-0.5,0.1l-0.8-0.2 c-0.4-0.1-0.7-0.3-0.9-0.7l-0.2-0.2l0.1-0.2c0-0.3,0-0.7,0.2-1.1l0-0.2l0.3-0.8l0.4-0.8l0.1-0.3l0.3-0.5l0.3-0.3l0.1-0.2l0.3-0.2 c0.1-0.1,0.2-0.3,0.3-0.4l0.4-0.5l0.1-0.3l0.1-0.3l0.1-0.1l0.2-0.4l0.4-0.4l0.3-0.1l0.2-0.3l0.4-0.3l0.9-1.3l0.3-0.6l0.5-0.6 l0.3-0.2l0.2-0.3l0.2-0.1l0.1-0.4l0-0.2l0.2-0.3l0.3-0.2l0.1-0.1h0.1l0-0.1l0.3-0.3l0.3-0.2c0.2-0.2,0.4-0.4,0.7-0.3 c0,0,0.1,0,0.1,0.1l0.1-0.1l0-0.1l0.3,0l0.3,0l0.3,0.2l0,0.2l-0.1,0.5l-0.3,0.5l-0.4,0.5l-0.1,0.1l-0.2,0.1H149l-0.3,0.1l-0.8,0.7 l-0.1,0.2l0,0.1l-0.6,0.6c0,0.1-0.1,0.1-0.2,0.2l-0.1,0.3l-0.4,0.3l-0.3,0.4l-0.4,0.3l-0.1,0.2l-0.3,0.2l-0.2,0.3l-0.1,0.1 l-0.5,0.6l-0.7,0.7l-0.3,0.4l-0.3,0.4l-0.5,0.8c-0.4,0.4-0.4,0.4-0.5,0.5l-0.3,0.7l-0.1,0.3l-0.4,0.7l-0.3,0.9l0,0.3l-0.1,0.5 c0.1,0.4,0.1,0.4,0.1,0.5l0.2,0.1l0.3,0h0.1l0.3,0l0.3-0.1l0.3,0l0.2,0.1h0.2l0.9-0.2h0.1c0.2-0.1,0.5-0.1,0.7-0.2l0.2-0.1l0.5-0.3 l0.4-0.2l0.8-0.2l0.7-0.3l0.4-0.1l1.5-0.7l0.1-0.2h0.3l0.8-0.4l0,0l0.1-0.1l0.3-0.2h0.1l0.1-0.2l0.3-0.1l0.3-0.2l0.4-0.3l0.4-0.2 l0.5-0.3l0.1-0.1l0.5-0.3l0.2-0.1l0.2-0.1l0.9-0.5h0.1l0.3-0.2l0.2-0.1l0.2-0.1c0.1,0,0.1,0,0.1,0l0.2-0.2l0.3-0.1l0.2-0.2l0.3-0.2 l0.4-0.2l0.2-0.1c0.3-0.2,0.7-0.5,1.2-0.7l0.1-0.2h0.1l0.1,0l0.1,0.3l-0.1,0.2l-0.1,0.1l-0.3,0.1l-0.1,0.1l-0.1,0h0l0,0.1l-0.6,0.3 h-0.1l-1.3,0.8l-0.4,0.3l-0.4,0.3l-0.4,0.1l-0.3,0.1c-0.8,0.5-1.6,1-2.4,1.5l-0.2,0.2l-0.1,0.1l-0.5,0.2l-0.1,0.1l-0.1,0.1 L151.3,35.8z M156.2,16.6l-0.4,0.6l-0.2,0.2l-0.1,0.2l0,0l-0.4,0.1l-0.4,0.1l-0.3,0.1l-0.4,0.3l0,0l-0.2,0.1l-0.2,0.3l-0.4,0.1 l-0.4,0.6l-0.4,0.1l-0.2,0.2l-0.3,0.3l0,0.1l-0.5,0.3l0-0.3l0.2-0.1c0,0,0.1-0.1,0.1-0.3l0.6-0.7l-0.1-0.3l0.3-0.6l0.1-0.3l0.5-0.5 l0.3-0.3l0.1,0l0.5-0.5l0.2-0.2l0.3-0.2l0.3-0.3h0l0.2-0.2h-0.1l0.2-0.1l0,0.1l0.3-0.3l0.4-0.1l0.3,0.3l0.4,0.2l-0.2,0.5l0.1,0.2 L156.2,16.6z"></path> <path class="st0" d="M157,33.2l0.1-0.2l0,0l0.3-0.4l0.3-0.5l0.5-0.7l0.1-0.3l1-1.2l0.2-0.3l0.1-0.2l0.6-0.9l0.5-0.7l0.4-0.6 l0.2-0.5l0-0.3h-0.1l0-0.1l0.1-0.1l0-0.7l0.1-0.8l0.1-0.3l0.4-1l0.8-0.5l0.5-0.1l0.4,0.3l0.1,0.3l0,0.3l0.2-0.1l-0.1,0.1h-0.1 l-0.1,0.1l-0.1,0.3c0,0,0,0.1,0,0.1c-0.1,0.5-0.4,1-0.7,1.5l-0.3,1.1l-0.4,0.5l-0.3,0.2l-0.5,0.6l-0.3,0.5l-0.2,0.4l-0.2,0.4 l-0.4,0.3l-0.1,0.2l-0.1,0.3l0,0.1l-0.2,0.1l-1,1.2l-0.1,0.3l-0.5,0.6l-0.3,0.6l-1,1.4l-0.2,0.3l-0.5,0.7l0,0l-0.1,0.2l-0.1,0 l-0.1,0.3l-0.2,0.4c0.2-0.2,0.3-0.3,0.5-0.5l0.1-0.2l0,0l0.1-0.3l0.3-0.2l0.1-0.1l0.3-0.3l0.3-0.2l0.4-0.4l0.2-0.1 c0.6-0.5,1.2-1,1.8-1.5l0.2-0.3l0.1-0.1l0.4-0.3l0.3-0.2l0.7-0.5l0.1-0.1l1-0.6l0.2-0.1c0.4-0.2,0.7-0.4,1.1-0.5 c0.3-0.1,0.9-0.4,1.4-0.3l0,0l0.8,0l0.3,0.3l0.4,0.4l0.1,0.7l0,0.3l-0.1,0.4l-0.1,0.5l-0.1,0.3l0,0.3l-0.3,1l0,0.1l0.3,0.4l0.1,0.5 l0.1,0.1l-0.1,0.1l-0.1,0.3l0,0.3l0.1,0.3l0.2,0.2l0.3,0.3c0.6,0,1.3,0,2.1-0.2l0.9-0.3l0.3,0l0.6-0.2l0.3,0l0.8-0.3l0.6-0.3l0.4,0 l0.4-0.1l0.7-0.3c0.5-0.2,1-0.5,1.6-0.7l0.4-0.3l0.2,0l1-0.5l0.3-0.2l0.4-0.3l0.4-0.2l1.2-0.5l1.5-0.8l0.2-0.2l0.6-0.3h0.1l0-0.1 h0.1l0.4-0.3l0.1-0.1h0.3l0.1,0.2l0,0.2l-0.1,0.1l-0.2,0.1c-0.7,0.4-1.4,0.9-2.1,1.3l-0.4,0.3l-0.3,0.1l-0.3,0.2h-0.1l-0.5,0.3 l-0.1,0.1l-0.2,0c0,0-0.1,0-0.1,0.1l-0.1,0.1l-0.2,0.1h0c-0.4,0.3-0.9,0.5-1.4,0.7l-0.7,0.4l-1.8,0.9l-0.2,0l0,0l-0.6,0.5l-0.5,0.3 l-0.6,0.1l-0.6,0.3l-0.3,0.1l-0.4,0.1l-0.5,0.1l-0.3,0l-0.2,0.1l-0.2,0l-0.1,0c-0.3,0.1-0.7,0.1-1,0.2l-0.5,0l-0.2,0.1l-0.2,0 l-0.3-0.1l-0.3,0.1l-0.3,0H167c-0.5,0-0.9-0.4-1.3-0.6c-0.2-0.1-0.4-0.3-0.5-0.5l0-0.2c0-0.2,0-0.4,0-0.7l0-0.4l0.2-0.5l0.3-0.7h0 l0.1-0.1l0.5-1.5h0l-0.1-0.1l0.2-0.3c0.1-0.6,0-1.1-0.5-1.3c-0.2,0-0.3-0.2-0.7,0l-0.4,0.2l-0.4,0.3c0,0,0,0-0.1,0l-0.9,0.6 l-0.1,0.1l-0.1,0.1l-0.7,0.7l-0.3,0.2l-0.1,0.3l-1.4,1l-0.2,0l-0.3,0.2l-0.2,0l-0.2,0.3l-0.4,0.3l-0.1,0.1l-0.3,0.2l-0.3,0.3 l-0.2,0.1l-0.2,0.3l-0.4,0.3l-0.4,0.3c-0.7,0.6-1.3,1.3-2,1.9l-0.2,0.2l0,0l-0.4,0.3c0,0,0,0-0.1,0l0,0.1l-0.1,0l0,0.1l0,0.1 l-0.1-0.1l-0.1,0.2l-0.2,0l-0.3-0.1l-0.1-0.4l0.1-0.8l0.3-0.7l0.2-0.2l0.4-0.4l0.5-0.2l0-0.1h0l0.1,0l0-0.2l0.1-0.1l0.2-0.3 l0.2-0.5l0.2-0.3l0.1-0.2l0.7-0.9L157,33.2z"></path> <path class="st0" d="M199,26.4L199,26.4l0,0.2l-0.1,0.1l-0.1,0.2l0.1,0.2h0l-0.2,0.6l-0.3,0.2l-0.2,0.1l-0.4-0.2l-0.6-0.3l-0.3-0.1 l-0.1-0.2h-0.2l0.1-0.2l0-0.3l0.1-0.2l0-0.4l0-0.4l-0.1-0.1l0-0.2l-0.3-0.1h-0.2l-0.3-0.1l-0.5,0c-1.3,0.1-0.7-0.2-2.3,0.2 l-0.5,0.3l-0.2,0l-1.3,0.3l-0.9,0.4l-0.7,0.3l-0.5,0.3l-0.3,0.1l-0.5,0.1l-0.7,0.3l-0.2,0.1l-1.2,0.5l-0.7,0.4l0,0.1l-0.7,0.4 l-0.3,0.2l-0.2,0.1l-0.3,0.2l-0.3,0.3l-0.3,0.4l-0.3,0.2l-0.2,0.2l-0.5,0.3c-0.3,0.3-0.4,0.5-0.5,0.8c-0.2,0.4,0,0.1,0.2,0.4 l0.1,0.2l0.3,0.2l0.2,0.3l0.1,0.2h0c0.2,0.2,0.5,0.2,0.7,0.4l0.5,0.2l0,0.1l0.7,0.3l0.4,0.1l0.2,0.2h0l0,0l1.1,0.4h0.5l0.3,0.1 l0.3,0.2l0,0l0.1,0.1l0.2,0.1l0.8,0.3l0.4,0l0.2,0.1h0.8l0.2,0.1l0.6,0.1l0.7,0.2l0.2,0.2l0.7,0.2l0.2,0.4l0.1,0.4l0,0.1l-0.1,0.2 l-0.2,0.2l-0.3,0.3l-0.6,0.3h-0.2l-0.3,0.2l-0.6,0.2l-0.1,0l-0.5,0l-1,0.3l-1.8,0.1h-0.5l-1.7,0.1h-0.5l-0.5,0l-0.7,0l-0.5,0.1 l-0.6,0.1l-1.1-0.2h-0.7l-0.4,0l-0.8,0.1h-0.2l-0.6,0.1h-0.3l-0.8,0.2l-0.6,0.2l-0.3,0l-0.5,0l-1.1,0.3l-0.1,0l-0.5,0.1l-0.1,0l0,0 h-0.2l-0.2,0.1l-0.2,0l-0.1-0.1l0-0.1h0l0,0l0,0l0.1-0.1l0.1,0h0l0.2-0.2L175,39l0.5-0.1l0.1,0l0.6-0.1l0.4-0.1h0.1l1.2-0.5h0.4 l0.3-0.1l0.6,0.1l0.5,0l0.3-0.1l0.9-0.1l0.7-0.1l0.6,0l0.9-0.1l0.1,0h0.5l0.3-0.1l0.1,0c0.2,0,0.4,0,0.7,0l0.4-0.2l1-0.1l0.7-0.2 l1.3,0l0.1,0l0.3-0.1h0.5l0.4-0.2l0.7-0.1l-0.2-0.1l-0.1-0.1l-0.5-0.1l-0.5-0.1l-0.6-0.3l0-0.1l-0.2,0h-0.4l-0.2-0.3l-1-0.4 l-0.2-0.1l-0.3-0.1l-1-0.5h0l0,0c-0.8-0.3-1.5-0.5-1.7-0.7h0l0,0l-0.2-0.1l-0.2,0l-0.5-0.2l-0.1,0l-0.1-0.3h-0.2l-0.4-0.3l-0.4-0.8 l0.1-0.6l0,0.2c0.1-0.2,0.1-0.3,0.3-0.5c0.1-0.2,0.3-0.3,0.4-0.5l0,0l0.6-0.8l0.3-0.3h0.1l0.2-0.3l0.3-0.2l0.2-0.3l0.3-0.2l0.2-0.2 l0.4-0.1h0l0.1-0.2l0.3-0.1h0l0.9-0.5l0.4-0.2l0.4-0.3l0.1-0.1l0.3-0.2l0.2-0.1l0.1-0.2l0.2-0.1h0.3l0.3,0l0.9-0.3l0.5-0.1l0.3,0 l0.1,0l0.7-0.2l0.1-0.1c0.7-0.1,0.8-0.3,1-0.4l0.3-0.2h0.2l0.5,0l0.2-0.1l0.2,0c0.1,0,0.2,0,0.3,0c0.4-0.1,0.9-0.2,1.4-0.3l0.3-0.1 l0.3-0.1l0.2-0.1h0.6l0.3-0.1l0.7,0.1l0.3,0.1h0.1l0,0l0.4,0.1l0.1,0l0.5,0.2l0.4,0.3l0.1,0.2l0.1,0.2c0.1,0.2,0.1,0.5,0.2,0.8h0.1 L199,26.4L199,26.4z"></path> <path class="st0" d="M212.1,34L212.1,34l0.1-0.2l0.8-0.9l0.2-0.3l0.1-0.1l0-0.1l0.1-0.1l0.5-0.5l0.2-0.2l0-0.1l0,0l0.2-0.4l0,0 l-0.2,0h-0.4l-0.5,0.1l-1.2,0.5l-0.3,0.1l-0.2,0l-1.3,0.7h0l-0.3,0.2l-0.3,0.1l-0.3,0.2l-1,0.5l-1,0.5l-0.4,0.2l-0.6,0.3l-0.2,0.1 l-0.5,0.3l-0.3,0.1l-0.8,0.5l-0.3,0.2l-0.3,0.2l-0.4,0.1l-0.4,0.2l-1,0.5l-0.1,0.1l-0.4,0.2h-0.1l0,0h-0.4l-0.5,0.2h-0.3 c-0.1,0.1-0.3,0.1-0.4,0.2l-0.2,0.1l-0.9,0.3l-0.2,0l-0.6,0.3l-0.1,0l-0.1,0h-0.1l-0.2,0h0c-0.7,0.1-1.2,0-1.3-0.5 c-0.1-0.5,0.1-1.2,0.4-1.8l0.2-0.5l0.1,0l0.1-0.2l0.2-0.3l0.1-0.2l0.1,0l0,0l0.1-0.2l0.3-0.4l0.5-0.3l0.1-0.1l0.4-0.5l0.2-0.2 l0.4-0.3l0.5-0.4l2-1.7l0,0h0l0.6-0.5l0.1-0.1l0.7-0.6l0.3-0.2l1.1-0.8l0,0l0.5-0.5l0.2-0.2l0.2-0.3l0.1,0l0.3,0l0.1-0.1l0.3-0.1 l0.2,0l0.2,0l0.2-0.1l0-0.1l0.3-0.1l1.4-0.7l0.3-0.2l0.2-0.1l0.3-0.1l0.1,0l0.1,0l0.4-0.1h0.1l0.2-0.1l0.3,0l0.3-0.1l0.3-0.1l0.2,0 l0.4,0.1l0.3,0h0.3l0.2,0h0.1l0,0h0.2l0.1,0.1l0,0.1l0.2,0l0.1,0.2l0,0.4l-0.1,0.1c-0.1,0.1-0.2,0.2-0.5,0.5c-0.1,0.1-0.3,0-0.3,0 l-0.5,0.1l-0.3,0h-0.7l-0.7-0.1l0,0h-0.2l0,0h-0.1l-0.3,0h-0.3l-0.6,0.3l-0.7,0.3l-1,0.4l-0.7,0.3c-0.3,0.1-0.5,0.3-0.7,0.5 c0,0,0,0,0,0l-0.4,0.3l0,0l-0.1,0l-2,1.4l-0.2,0.2l-0.4,0.4l-0.3,0.3l-0.3,0.2l-0.4,0.2l-0.1,0.1l-0.4,0.4l-0.1,0.1l-0.1,0.1 l-0.5,0.6l-0.1,0.1l-0.1,0.1l-0.1,0.1l-0.1,0.2l-0.1,0.2h-0.1l-0.1,0.2l-0.2,0.2l-0.1,0.2l-0.2,0.2l-0.2,0.2l-0.5,0.5l0,0.1l0,0.2 l0,0.1l0,0.1l-0.1,0.1l-0.2,0.1l-0.1,0.2l-0.2,0.3l-0.2,0.3l0,0.1l0,0.1l0,0.3l0.1,0.1l0.1,0.2l0.1,0.1l0.9-0.3l0.4-0.1l0.6-0.2h0 l0.2,0c0.6-0.2,1.1-0.5,1.7-0.7l0.2-0.1l0.3-0.2l0.2-0.2h0.3c0.5-0.2,1-0.4,1.5-0.7l0.2-0.2l0.3-0.1l0,0l0.1,0l0.1-0.1l0.2,0 l0.6-0.3l0.3-0.2l0.3-0.2l1.2-0.6l0.3-0.2l1.2-0.5L209,32l0.8-0.4l0.4-0.3L211,31l0.2-0.2l0.3-0.2l0.2-0.2l0.5-0.3l0.6-0.3l1.3-0.3 h0.5l0.4,0.1l0.3,0.2l0.2,0.1c0.2,0,0.2,0.1,0.3,0.3l0,0l0.1,0l0,0.2l-0.1,0.1h0.1l0,0.1l0,0l-0.1,0.1l-0.1,0.1l-0.1,0.2l-0.3,0.2 c0,0.1-0.1,0.2-0.2,0.3l-0.3,0.5l-0.3,0.2l-0.1,0l-0.5,0.6l-0.1,0.1l0,0l-0.1,0l-0.3,0.3l-0.1,0.1l-0.1,0.2l-0.4,0.5 c-0.1,0.1-0.1,0.2-0.2,0.3l-0.1,0.3l0,0c-0.1,0.2-0.1,0.3-0.1,0.4c0,0.1,0,0,0.1,0.1c0,0,0.1,0,0.1,0l0.2,0h0.3l0.1,0h0.3l0.2,0 l0.1,0c0.3,0,0.6-0.1,0.9-0.2l0.3-0.1l0.3-0.1h0.3l1.5-0.4l0.1-0.1l0.5-0.1l0,0l0.6-0.2l0.3-0.2l0.2,0l0.2-0.1l1.4-0.4l0-0.1 l0.1,0.1l0.4-0.1l0.1-0.1l2-0.6h0.2l1.1-0.3c0,0,0.1,0,0.1,0h0.1l0,0.3l-0.2,0.1h-0.3l-0.7,0.2l-0.5,0.2h-0.2l-0.7,0.2l-0.3,0.1 l-1,0.5l-0.7,0.3l-0.8,0.3l-0.9,0.3l-0.2,0.1l-0.4,0.2l-0.2,0.1l-0.3,0.1h0l-0.3,0.1l-0.3,0.2l-0.1,0l-0.1,0.1l-1.1,0.4l0,0.1l0,0 l-0.3,0.1l0,0.1l-0.7,0.3l-0.6,0.2l-0.2,0.2l0,0l0-0.1l-0.1,0l-0.1,0.1l-0.1,0l0,0l-0.3,0.1h-0.5l-0.1,0h-0.3l-0.2-0.1l-0.2-0.1 l-0.1-0.2l0.1-0.2l0-0.2c0-0.2,0-0.3,0.1-0.5l0.1-0.3l0.1-0.2l0.3-0.4l0.1-0.2l0.4-0.4L212.1,34z"></path> <path class="st0" d="M242.6,36.9l-0.1-0.3c0,0-0.1-0.1-0.1-0.1c-0.1-0.2-0.1-0.4,0-0.7l0-0.1l0.1-0.4l0.3-0.6l0.2-0.4l0.2-0.3 l0.4-0.4l0.5-0.6l0.4-0.4l0.1-0.1l0.1-0.2l0.4-0.5l0.1-0.3l0.1-0.2l0-0.2l-0.1,0.1h-0.1l-0.3,0.2l-0.2,0l-1,0.6l-0.4,0.3l-0.3,0.3 l-0.3,0.1l-0.3,0.1l-0.9,0.5l-0.2,0.3l-0.5,0.3l-0.3,0.1l-0.8,0.5l-0.9,0.6l-0.1,0.2l-0.2,0.2l-0.3,0.1l-0.1,0 c-0.2,0.1-0.3,0.2-0.5,0.3l-0.2,0.1l-0.3,0.2l-0.4,0.3l-0.3,0.1c-0.7,0.4-1.2,0.7-1.5,0.7h0l0,0l-0.2,0l-0.2-0.1l-0.2-0.2l-0.2-0.5 c-0.1-0.2-0.1-0.6,0.1-1.1l0.2-0.9l0.1-0.3l0.2-0.4l0.1-0.1l0.4-0.8l0.1-0.2l0.7-0.8l0.3-0.4l0.1-0.1l0.1-0.1l0.4-0.5l0.1-0.3 l0.2-0.2l1-1.4l0.9-1.3l0.6-0.7l0.9-1h-0.6l-0.8-0.1l-0.2,0l-0.1,0c0,0,0,0,0,0l-0.7,0.4l-0.5,0.4l-1.5,0.7l-0.4,0.3l-1.5,1 l-0.9,0.4l-0.1,0l-0.3,0.2l0,0l-0.2,0.1l-1.3,0.9L231,31l-0.4,0.4l-0.9,0.8l-0.7,0.4c-0.1,0.1-0.3,0.2-0.4,0.3l-0.3,0.5l-0.1,0.1 l-0.4,0.4l-0.3,0.1l-0.1,0.2h-0.1l-0.1,0.1h-0.1l-0.2,0.2l-0.1,0l-1.2,1l-0.1,0.1l-0.2,0.2l-0.2,0.1l-0.1,0l-0.6,0.5l-0.3,0.3h0 l-0.5,0.4l0,0.1h-0.1l-0.1,0l-0.4,0.5l-0.6,0.4l-0.2,0.3l0,0.1l-0.4,0.4l-0.3,0.3l-0.2,0.4l-0.1,0.2l-0.2,0.1l-0.1,0l0,0l-0.1,0.1 l0,0.1l-0.2,0.1l0,0.1l0,0.1l-0.1,0.1l0,0.1l-0.2,0.2l0,0l-0.1,0l-0.1,0l-0.1,0.1h0l0,0l-0.3,0.2l-0.5,0.1h-0.1l0,0l-0.3,0.1h-0.2 l-0.2,0l-0.1-0.2l-0.3,0.1l-0.1,0l-0.1-0.3l-0.1-0.2l0.1-0.3l0.2-0.4l0.1-0.1l0,0l0.1-0.2l0.2-0.2l0.2-0.2l0.5-0.8l0.9-0.9l0,0 l0.1-0.2l0.1,0l0.5-0.7l0.3-0.3l0.3-0.4l0.1-0.2l0.1-0.2l0.3-0.4l0-0.1l0.2-0.1l0.1-0.2l0.3-0.4l0.8-1l0.3-0.3l0.2-0.3l0.9-1 l0.2-0.3l0.8-1l0.5-0.7l0.1-0.2l0.2-0.4l0.1-0.3l0.2-0.2l0.2-0.1l0.1-0.3l0.1-0.1l0-0.1l0-0.1l0.1-0.1l0-0.2l0.1-0.2h0l0,0l0,0 l0.1-0.1l0.1-0.1h0.1l0,0l0.3-0.2l0.1,0l0.4-0.6l0.3-0.3l0.2-0.3l-0.1,0l0.2-0.3l0.1-0.1l0.1-0.2l0,0l0,0l0,0h0l0.1-0.4l0.1-0.4 l0.1-0.1l0.3-0.4l0.4-0.2l0.2,0.1l0-0.2l0.1-0.1h0.1l0.1-0.1l0.2,0l0.5,0h0.3l0.2,0.1l0.1,0.1l0,0.2l-0.2,0.3l0,0.2l-0.1,0.2 l-0.4,0.9l-0.7,0.5l-0.5,0.3l0,0l-0.5,0.8l0,0.1l-0.2,0.3l-0.1,0.3l-0.1,0.3l-0.1,0.2l-0.2,0.1l0,0l-0.1,0l0,0.1h-0.1l-0.1,0.2 l-0.2,0.2l-0.3,0.2l-0.4,0.5l-0.3,0.3l-0.2,0.4l-0.1,0.1l-0.5,0.3l-0.5,0.6l-0.3,0.2l-0.5,0.6l0,0.1l-0.3,0.3l-0.4,0.5l-0.2,0.4 l-0.2,0.3l-0.3,0.4l-0.1,0.1l-0.4,0.3l-0.4,0.5l-0.5,0.7l-0.5,0.7l-0.5,0.5l-0.8,1.1l-0.3,0.8l-0.1,0.2l0,0h0.2l0.1-0.1h0.1l0.1,0 l0.1-0.1l0.3-0.1l0.1-0.2l0.2-0.3l0.2-0.1l0.4-0.2l0.4-0.3l0.4-0.4l0.1-0.1l0.1,0l0.3-0.2l0.5-0.5l1-0.8l0.3-0.2l0.9-0.7l0.3-0.3 l0.1-0.1l0.3-0.1l0.6-0.4l0.3-0.4l0.2,0l0.6-0.4l0.4-0.4L229,32l0-0.1l0.8-0.7l0.3-0.2l0.5-0.4l0.1-0.2l0.3-0.2l0.4-0.3l0.3-0.2 l0.4-0.5l1.1-0.8l0.4-0.3l0.3-0.3l0.8-0.3l0.6-0.3l0.2-0.3l0.1,0l0.2-0.1l0.2,0l0.3-0.3l0.1-0.1l0.3-0.1l0.4-0.3l0.5-0.2l0.7-0.4 l0.1-0.2L239,25l1.2-0.3l0.9-0.4l0.4-0.1l0.3-0.1l0.1-0.1l0.1,0h0.1l-0.1,0.1l0.4,0l0.2,0l0.2,0.4l-0.1,0.4l-0.1,0.2 c-0.3,0.5-0.8,1-1.1,1.5c-0.1,0.1-0.2,0.2-0.2,0.3l-0.4,0.3l-0.3,0.4l-0.7,0.7l-0.5,0.5l-0.1,0.1l-0.4,0.4l-1.3,1.8l-0.6,0.9 l-0.5,1h0l0,0l-0.5,0.8l-0.2,0.6l-0.1,0.2l-0.1,0.1l-0.1,0.3l0,0.1l0,0.3l0.1,0.3l0,0.2l0.1,0.2l0,0.1l0,0l0.6-0.3l0.2,0 c0.3-0.2,0.5-0.4,0.8-0.6l0.2-0.2l0.2-0.1c0.4-0.3,0.7-0.5,1-0.8l0.5-0.4l0.3-0.2l1.1-0.7l1.9-1.3l0.2-0.2l0.2-0.1l0.3-0.1h0.2 c0.1-0.1,0.2-0.1,0.3-0.2l0.1-0.1l0-0.1l0,0l0.1-0.1l0.1-0.1l0,0l0.2-0.1l0,0h0l0.1,0l0.1,0l0.1-0.1h0.1l0.3-0.1h0.3l0.2-0.1l0.1,0 l0,0l0.3,0l0,0l0.2,0l0.2,0.1l0.1,0.1l0,0.2l0,0h0l-0.1,0.1l-0.3,0.7l0,0.1l-0.2,0.5l-0.4,0.5l-0.3,0.6l-0.1,0.2l-0.3,0.3l-0.5,0.6 l-0.2,0.3l-0.3,0.4l-0.2,0.3l-0.2,0.4l0.1,0.5l0.3,0.2c0.3,0.2,0.9,0.3,1.4,0.2l0.3,0l0,0c0,0,0.1,0,0.1,0l0,0l0.1-0.1l0.5,0 l0.4-0.2l0.3-0.1l0.2,0.1l0.1-0.1l0,0l0.3,0l0.9-0.5l0.6-0.3l0.3,0l0.3-0.2h0.1l0.6-0.3l0.3,0l0.3-0.1l0.6-0.3l0.6-0.3l1.2-0.6 l0.1-0.1l1.6-0.7l0.2-0.1l0.6-0.2l0.2-0.1l0.6-0.3l0.3-0.2l0.2,0l0.1,0.2l-0.1,0.2l-0.2,0.1l-0.1,0l-0.2,0.1l-0.1,0.1l-0.1,0.1 l-0.3,0l-1.3,0.8l-0.4,0.3h-0.1l-0.5,0.2l-0.4,0.3l-0.2,0.1l-0.1,0.1l-0.1,0l-0.7,0.4l-0.3,0.1l-0.2,0.1l-0.3,0.2l-0.2,0.1 l-0.2,0.1l-0.4,0.2l-0.1,0l-0.2,0.1l-0.2,0.1l-0.4,0.2l-0.6,0.2l-0.8,0.3l-0.3,0.2l-0.2,0l-0.4,0.2c-0.1,0-0.3,0.1-0.4,0.2l-0.1,0 l-0.2,0l-0.5,0.1l0,0h-0.1l-0.3,0.1l-0.3,0h-0.2c-0.3,0.1-0.6,0.1-0.8,0.1h-0.4c-0.2,0-0.3,0-0.5-0.1h-0.1L242.6,36.9z"></path> <path class="st0" d="M297.6,29.9l0.7-0.4l0.6-0.3l2.2-1l0.6-0.3l0.9-0.4l2-1l1-0.6l0.7-0.5L307,25l0.4-0.3l0.3-0.1l0.3-0.1l1-0.6 l0.7-0.2l0,0l0.5-0.3l0.8-0.4l0.5-0.3l0.5-0.1l0.8-0.2h0l2.6-1.5l3.4-2l0.3-0.2l0.4-0.4l0.6-0.4l0.3-0.2l0.3-0.1l0.8-0.7l0.2-0.3 l0.5-0.5l0.2-0.3l0.1-0.1l0,0h0.5l0.3,0h0.3L325,15l0.1-0.1l0.4-0.3h0.2c0.6-0.5,1.2-1,1.7-1.5l0.1-0.1l0.1,0 c0.3-0.2,0.5-0.5,0.8-0.8l0.2-0.4l0-0.1l0-0.1l0.3-0.2l-0.1-0.2l0.2-0.3l0.1-0.3l0-0.1l0-0.1l0-0.2l-0.1-0.1l0-0.2l0-0.4l0,0 c-0.1-0.3-0.4-0.6-0.6-0.7c-0.2-0.1-0.5-0.3-0.8-0.4l-0.5-0.1L326.9,8l-0.7-0.2l-0.1,0l-0.1,0l-0.3-0.2l-0.6-0.1l-0.8,0l-0.1,0 l-0.6-0.1l-1.1-0.1h-0.7l-0.7-0.1l-0.1,0h-0.5l-0.5,0l-0.3,0.1l-0.1-0.1l-0.1,0l-0.1-0.1l-0.1,0l-0.1,0l-0.4,0h-0.3l-1.1,0l0,0l0,0 h-0.5l-3.9,0.2h-0.4l-0.1,0l-2.8,0.3l0,0l-0.3,0h-0.3L309,7.8l-0.5,0h0l-0.3,0.1l-0.3,0.1l-0.4-0.1h0c-0.5,0.1-1,0.1-1.5,0.2 l-0.8,0.1l-0.1,0c0,0-0.1,0-0.1,0l-0.2,0l0,0l-0.1,0l-1.1,0.2h-0.7l-0.4,0l0,0l-0.3,0.1l-0.2,0c-0.1,0-0.2,0-0.3,0l-0.5,0.1h-0.3 l-0.2,0.1h-0.1l-0.2,0l-0.7,0l-1.2,0.2l-0.3,0.1h-0.3l-0.2,0l-0.2,0l0,0.1h0l0,0.1h-0.3L297,9.6h0.1l0,0.1l-0.3,0.1l-0.1-0.1l0,0h0 l0,0l0,0.1l-0.3,0l0-0.1l-0.1,0.1l0-0.2L296,9.9h-0.2l-0.2,0l0.1,0.1l-0.2-0.1l-0.2,0l-0.1,0.1l-0.1-0.1H295l-0.1-0.1l0,0l-0.1,0h0 l-0.4,0.2h-0.1l-0.1,0.1l-0.8,0.2l-0.2,0.2l-0.6,0.3l-0.2-0.1H292l-0.2,0.2l-0.2,0l-0.4,0.4l-0.3,0.1c-0.1,0.2-0.2,0-0.3,0 l-0.6,0.2l-0.3,0l0,0.1h0l0,0.2h0l-0.1,0l-0.1,0l0,0h0l0,0l0,0.1l-0.2,0.1l0-0.1l-0.1,0.1l0-0.2l-0.1,0.1l-0.2,0l-0.1,0l0,0.1 l-0.1-0.1l-0.1,0l-0.1,0.1l0,0h-0.2l-0.1,0l0,0l-0.2-0.4l-0.2,0.1l-0.1,0l0-0.1h-0.1l0,0l-0.1,0l0,0.1l-0.1-0.1l-0.1,0l-0.1,0.1 l0,0h-0.2l-0.1,0l0,0l-0.1-0.1l-0.1,0.1l-0.2,0.1l-0.1-0.1l0-0.1h-0.1l0-0.1l0.3,0l0,0h0l0,0l0,0l0-0.1l-0.1,0l0-0.1l0.1-0.2 l0.2-0.2l0,0l0-0.1l0.2-0.2h0.2l0,0h0.1l0.1-0.1l0.3-0.1l0.1,0l0.2,0l0.1-0.1h0.1l0.2-0.1l0.3,0l0-0.1h0l0,0l0.2,0l0.2,0l0.2,0 l0.7-0.1l0,0l0.3-0.2l0.3-0.1h0l0,0h0.1l0.1-0.1l0-0.1h0l0,0h0.3l0.1,0h0.1l0.1,0.1l0.1,0l0.1,0l0.2,0l0.2-0.2l0.2-0.1h0.3l0.5,0.1 l0.8-0.1l0.6-0.3l0.3,0l0.1-0.2l0.4-0.2l0.4-0.1l0.6,0.1l0.1-0.1h0.3l0.1-0.1l0.2,0l0.7-0.1l0.2,0.1l0.2-0.1l0.2,0l0,0l0.4,0 l0.3-0.1l0,0l1.6-0.2l1-0.3l0.3,0l0.2,0.1l0.3-0.2h0.2l0.4,0l0.2-0.1h0.3l0.2,0l1.3-0.2l0.3-0.1h0.2l0.3-0.1h0.2l0.2-0.2L306,7 l0.2,0.2h0.3l0,0l1.1-0.1l0.1,0h0.3l0.1-0.1l0,0h0l0,0h0.6l0,0c0.2,0,0.3,0,0.5,0l0.1-0.1h0.3l0.3,0h0.9l0.7-0.1l0,0l0,0h0.2 l0.4-0.1l1-0.1l1,0h0.2l0.3-0.1l0.4,0l0.3,0l1.7-0.1l0.2,0l0.6-0.2l0.2,0.1l0.2,0.1h0.2l0.1,0h0.2l0,0h0.1l0.1-0.1h0.2l0,0h0l0,0.1 l0.1,0h0.1l0.1,0h0l0.2,0l0,0c0.9,0,1.8,0.1,2.7,0.2l0.5,0.1l0.5,0l0.4,0l1.2,0.3l0.6,0.2l0.4,0.1l0,0l0.6,0.1l0.2,0.1l1.7,0.4 c0.1,0.1,0.2,0.1,0.2,0.3l0.1,0.5l0,0l0.2,0.4l0,0.3l-0.1,0.2l0,0.1l0.2,0.5l0.1,0.2l0,0.1l0,0.1l0.1,0.1l0,0.1l0,0.1l0,0l0,0.3h0 l0,0h-0.1l0,0.3l0,0l0,0l-0.1,0.2l0,0.1l-0.1,0.1l-0.2,0.2l0,0.1l-0.1,0h0l-0.1,0.2l0,0l-0.4,0.3h-0.1l0,0l-0.4,0.3 c-0.3,0.2-0.5,0.4-0.7,0.7l-0.7,0.7l-0.3,0.3l-0.3,0.5l-0.2,0.3l-0.3,0.2l-0.3,0.1l-0.3,0.3l-0.1,0.1l0,0.3l-0.1,0.1l0,0.1l0,0.1 l-0.3,0.2l0.1,0h-0.1l0,0l-0.2,0.1l-0.1,0.1h0l0,0l-0.3,0.2l-0.4,0.1l-0.2,0.1l-0.2,0l-0.3,0.2c-0.2,0.1-0.3,0.2-0.4,0.2l-0.2,0.2 l-0.9,0.5l-1.6,0.9l-0.4,0.5l-0.5,0.4l-0.9,0.4l-0.8,0.6l-0.3,0.2l-0.6,0.3l-0.7,0.2l-0.3,0.2l-0.4,0.2l-0.6,0.2l-4.6,2.4l-1,0.6 l-0.7,0.3c-0.6,0.3-1.2,0.6-1.8,0.9l0,0l-0.1,0.1l-0.1,0l-0.2,0.1l-0.4,0.3l-0.4,0.3l-0.1,0.1H304l-0.5,0.3l-0.1,0.2l-0.2,0 l-0.5-0.1l-0.3,0.1l-0.3,0.2H302c-0.1,0-0.1,0.1-0.2,0.1l-2.3,1.2h0l-0.5,0.3c-0.1,0-0.2,0-0.2,0.1l-0.2,0.1l0,0.1l-0.6,0.3 l-0.4,0.3l-0.3,0.3l-0.2,0l-0.3,0.1h-0.3l-0.2,0.2l-0.1,0l0,0.1l0,0.1l-0.1,0l0,0.1l0,0.1l-0.3,0.1l0,0h0l0-0.1l-0.1,0l-0.1,0.1 l0,0l0,0l-0.3,0.1l-0.3,0l-0.2,0l0,0h-0.1l-0.2,0.2h-0.1l-1.9,0.9l0,0l-0.3,0.1l-0.2,0.1l-0.3,0.1l-1.2,0.6h0l-0.5,0.2l-0.3,0.2 l0,0l-1.1,0.5l-0.6,0.3c-2.1,1-4.1,1.9-6.2,3l-0.2,0.2l-0.1,0.1l-1.5,0.8l-0.1,0.2l0,0l-0.5,0.3l-0.6,0.4l-0.1,0.1h-0.1l-1,0.7 l-0.5,0.3l-0.2,0.2l-0.3,0.2l-0.3,0.1l-1,0.6l-0.3,0.3l-0.6,0.2l-0.5,0.4l-1.3,0.9l-0.7,0.4l-0.4,0.4l-0.6,0.4l-0.3,0.2l-0.4,0.2 l-0.7,0.3l-0.7,0.5l0,0.1l0,0.1l0,0.1l-0.1,0.1l-0.2,0.1l-0.1,0.2l-0.2,0.3l-0.2,0.2l0,0.1l0,0.1l0,0.3l0.1,0.1l0,0.1l2.6-0.4 l0.4,0l0.6-0.1l0.6-0.2l0.1,0c0.1,0,0.1,0,0.2,0l0.2,0l0.7-0.2l1.2-0.3l0.4,0l1.1-0.3l0.3,0l0.4-0.1l1.2-0.3l0.6-0.1l0.2,0h0.1 l0.4-0.1h0.3l0.2,0l0.4-0.1l0.4-0.1l0.8-0.2l0.1,0l0.1,0l0.2-0.1l0.5,0l0.6-0.2l0.4-0.1l0.6-0.2l0.2-0.1l0.1,0l1.2,0.1l2.7-0.4l0,0 l0.1,0l0.2,0l0.8-0.1l0.2,0h0l2-0.3l0.3,0l0.5,0l0.4-0.1h0.2l0.2-0.1l0.5,0l0-0.1l0.2,0.1l0.2-0.1l0.4-0.1l1.2-0.2l0.4,0l0.3,0 l1.2-0.2l0.4,0l1.2-0.2l0.7,0l0.3-0.1l0.1,0l0.6,0l0.4-0.1l0.4-0.2l0.3-0.1l0.2,0.1l0.2,0.1l0.3-0.1l0.1,0l0.2-0.1l0.1,0l0.1-0.1 l0.3,0l0,0h0l0,0.1h0.3l0.1,0h0l0.3,0l0.2,0.1l0.2,0.1l0,0l0.1,0.1c0.2,0,0.4,0,0.6,0h0l0.8-0.1l0.4,0l2.8-0.2l0.5-0.1h0.8l0.2-0.1 l0.1,0.1l1.1-0.1l0.3-0.1l0.3,0c0.4,0,0.9,0,1.3,0l0.8-0.1l0.1,0l0.2,0.1h0.6l0.5-0.1l0.1,0h0.5c0.1,0,0.2,0,0.3,0h0.5l0.1-0.1 l0.1,0l0.8,0h0.6l0.3,0l0.2,0l0.2,0h0.5l0,0l0.2,0l0.3,0l0.4,0l1.3,0l0.4,0l0.3,0h1.2l0.4-0.1h1.3l0.7,0.1h0.4l0.1,0l0.7,0l0.4,0 l0.4-0.2l0.3,0l0.2,0.1l0.2,0.1l0.3-0.1h0.1l0.1,0l0.1-0.1h0.1l0.1-0.1l0.1,0h0.3l0,0l0,0l0,0l0.1,0h0.1l0,0.1h0h0.3l0.3,0l0.4,0h0 l2.3,0.1l1.3,0l0.9,0.4l0,0.1l-0.4,0.1l-1.4-0.2l-0.1,0h-0.4l-0.2,0.1l-1.7-0.1c-1,0.1-1,0-2,0.2c-0.3,0-0.7,0-0.7,0l-1,0l-0.8-0.2 l-0.8,0.2l-0.6,0l-1,0.1l-0.7,0.1l-0.8,0l-0.8,0l-1.7-0.2h-0.1l-1,0.3h-0.7l0,0L319,43l-2.2,0.4h-0.3l0,0c-0.6,0-1.1,0-1.7,0 l-1.5,0.2l-0.1,0h-0.4l0,0l0,0h-0.1l-1.1,0.1l-0.1,0c-0.4,0-0.8,0-1.2,0l-0.2,0.2l-0.3-0.1l-0.8,0.1h-0.3l-0.5,0l-0.2,0l-1.5,0.1 l-0.5,0.1l-0.2-0.1c-0.1,0-0.2,0-0.3,0h0l-0.9,0.1l-0.3,0.1l-0.5,0l-0.3,0.1l-0.1,0h-0.1l-0.1-0.1l0,0l-2.4,0.2l0,0h-0.2l-0.7,0 l-0.2,0.1l-1.6,0.2h-0.4l0,0l0,0l-1.1,0.1h-0.1l-0.1,0l-0.4,0h-0.3l0,0l-0.3,0.1l-0.2,0L294,45h-0.1l-0.7,0.1l-0.6,0l-1.1,0.1 l-0.6,0.1l-0.1,0.1l-1.7,0.2l-1.4,0.1l-1.8,0.3l-0.2,0.2l0,0l-2.2,0.5l-0.2,0l-0.2,0l-2.1,0.5l-0.9,0.2l-0.4,0.2l-0.7,0.1l-0.3,0.2 l-2,0.2l-0.6,0.2l-1.1,0.1l-1.1,0.3l-2,0.5l-0.1,0.1h-0.2l-0.6,0.2H271l0,0l-0.1,0l0,0.1l-0.1,0.1l-0.1,0l0,0.1l-0.2,0l0,0.1l0,0 l0-0.1l-0.2,0h-0.1l0,0h-0.3l-0.2,0l-0.7,0.4l-1.2,0.2l-0.6,0.3l-0.8,0l-1.2,0.1l-1.3-0.5l0-0.1l0.1-0.3l-0.2-0.2 c-0.1-0.1,0.2-0.2,0.3-0.4c0.1-0.3,0.3-0.6,0.6-0.9l0-0.4h0l0.2-0.4l0,0l0-0.1l0.1-0.2l0.2-0.3l0.2-0.3l0,0l0,0l0.2-0.1l0.1-0.1 l0-0.1h0l0,0l0.3-0.1h0.2l0.1-0.1h0.3l0.1,0L267,46l0.2-0.3l0.2-0.3l0.3-0.1l0.5-0.1l0.4-0.2l0.7-0.4h0.1l0.3-0.2l0.7-0.5l1.3-0.7 l0.5-0.2l1.2-0.8l0.4-0.2l0.4-0.2l1.3-0.7l0.4-0.3l0.3,0l0.2-0.2h0.1l0.5-0.3l0.3-0.1l0.4-0.2l0.5-0.3l0.1,0l0.9-0.5l0.1-0.2h0.2 l0.2-0.1l1.1-0.5l0.1-0.2l0.1-0.1l0.4-0.3l0.8-0.4l0,0l0.1,0l0.3-0.1l0.9-0.5h0.3l0.3-0.1l0.3-0.2l0.2-0.2h0.4l0.9-0.5l0.4-0.2 l0.2-0.2l0.3-0.1l1.6-0.8l1.7-0.8l0.3-0.2l0.4-0.2l0.9-0.5l0.1-0.2l0.5-0.2l0.4-0.2l0.5-0.2l0.1-0.1l0.8-0.4l0.1,0l0.6-0.5l0.2,0 h0.1l0.1,0l0.1,0l0.5-0.3l1.1-0.5l0-0.1l0.3-0.2l0.1,0l0.3-0.1L297.6,29.9z M287.5,10.7L287.5,10.7l0,0.1h0L287.5,10.7l0.2,0 L287.5,10.7z M287.7,11.7L287.7,11.7L287.7,11.7L287.7,11.7z M287.8,11.7L287.8,11.7L287.8,11.7L287.8,11.7z M289,11l0.1,0l0-0.1h0 L289,11l-0.1-0.1L289,11z M329,8.5L329,8.5L329,8.5L329,8.5z"></path> <path class="st0" d="M338.2,36.3c0.1-0.2,0.1-0.3,0.2-0.5l0-0.1l0.1-0.1l0.2-0.4l0.1-0.2l0.1-0.2c0,0,0.1-0.1,0.1-0.2l0-0.1 c0.3-0.5,0.6-1,0.9-1.5L340,33l0.1-0.2l0.2-0.4l0.1-0.1l0.2-0.4l0.1-0.2l0.2-0.3l0-0.3l-0.1-0.1l-0.1-0.2l-0.2,0.1h-0.1l-0.6,0.2 l-0.9,0.3l-0.1,0.1l-0.3,0.1l-0.4,0.2l-1.1,0.5l-0.8,0.5l-0.3,0.1l-2.6,1.4l-0.2,0.2h-0.1l-0.1,0.2l-1.3,0.7l-0.5,0.2l-0.1,0.1 l-1.7,0.9l-0.1,0.1l-0.1,0l-0.2,0.2l-0.1,0l0,0l-0.4,0.2l-0.1,0.1h-0.1l-0.2,0.2l-0.1,0l0,0l-0.1,0l-0.1,0l-0.2,0.1l-0.3,0.2 l-0.2,0L327,38l-0.3,0.2l-0.1,0.1l-0.3,0.2l-0.6,0.1l-0.3,0.1l0,0l-0.1,0.1l0,0h0l-0.3,0.1h-0.1l0,0.1l0,0l0,0l0,0h-0.2l-1.2-0.1 l0,0h-0.3l-0.2-0.1l-0.4-0.2c-0.1,0-0.1,0-0.2,0l0,0l0,0l-0.1-0.2c0-0.2,0-0.4,0.1-0.5l0-0.3l0.2-0.8l0.1-0.3l0.2-0.2l0.1-0.3 l0.1-0.1l0.2-0.3l0.1-0.2l0.3-0.3l0.6-0.9l0.1-0.3l0.3-0.3l0.2-0.3l0.2-0.4l0.3-0.4l0.2-0.2l0.3-0.2l0-0.1l0.1-0.1l0.2-0.3l0-0.1h0 l0.2-0.3l0.6-0.6L327,30l0.1-0.1l0-0.1l0.1-0.4l0-0.5l0.1-0.3l-0.1-0.3l0-0.2l0.1-0.3l0.3-0.2l0.5-0.6l0.4-0.3h0.3l0.2,0.2l0,0 c0,0,0,0,0,0c0.1,0.2,0.1,0.4,0.1,0.6l0,0l0,0.7l-0.2,0.5l-0.2,0.3l-0.4,0.5l-0.4,0.8l-0.3,0.2l-0.1,0.1l-0.3,0.3l-0.3,0.3 l-0.2,0.1l0,0.1l-0.2,0.2l-0.3,0.2l-0.1,0.1h0l-0.1,0l-1,1.1l-0.1,0.2l-0.1,0.2l-0.2,0.2c-0.2,0.3-0.5,0.6-0.6,0.9l-0.5,0.6 c-0.1,0.2-0.2,0.3-0.3,0.4l-0.2,0.3l-0.1,0.3l-0.1,0.4l-0.2,0.3l-0.1,0.3l0,0c0,0.1,0,0.3,0,0.3c0.2,0.3,1.3,0.1,2.4-0.3l0.3-0.2 l0.4,0l0.6-0.3l0.3-0.1l0.3-0.2c0.6-0.3,1.2-0.5,1.8-0.8l0.3-0.2l0.3-0.1l0.4-0.2l0.3-0.1l0.4-0.3l1.1-0.4c0,0,0.1-0.1,0.1-0.1 l0.1-0.1l0.3-0.1l1-0.5l0,0l0.2-0.2l0.2,0l0.1-0.1l0.2-0.1L334,33l0.6-0.2l1.3-0.8l0.4-0.3l0.6-0.3l0.5-0.5l0.3-0.2l0.4-0.2 l0.5-0.2l0.2-0.1l0.3-0.2l1-0.4l0.2-0.1l0.4-0.2l0.3-0.3l0-0.1l0.1,0l0.2,0.1c0.2-0.1,0.5-0.3,0.7-0.3l0,0l0.4-0.2l0.1,0 c0.1,0,0.2,0.2,0.2,0.2l0.1,0l0.2,0.1l0.2,0.1l0,0.2l-0.1,0.1h0.1l0,0.1l-0.1,0l0,0.1l-0.1,0.1l-0.1,0.3l-0.4,0.4l-0.2,0.3l0,0.2 l-0.4,0.5l-0.1,0.2l-0.1,0.2l-0.2,0.3l-0.1,0.1l-0.2,0.4l-0.2,0.4l-0.3,0.3l-0.1,0.2l-0.4,0.5l-0.1,0.2l-0.2,0.4l-0.1,0.3l-0.2,0.4 l-0.1,0.1c-0.2,0.5-0.4,1-0.2,1.1c0.2,0.2,0.4,0.3,0.8,0.4l0.4,0h0.3l0.2,0h0.3c0.5,0,0.9-0.1,1.5-0.2l0,0h0.2l0.6-0.2l0.2,0 l0.9-0.1l0,0h0l0.3-0.1l0.5,0l0.4,0h0c0,0,0.1,0,0.1,0h0l0.3,0L347,36l0.1,0.1l-0.2,0.1l-0.2,0l-0.1,0l-0.8,0l-0.2,0.1l-0.1,0.1 l-0.1-0.1l-0.6,0.1l-1.4,0.5l-0.4,0l-0.3,0l-0.6,0.2l-0.4,0l-0.3,0h-0.1c0,0-0.1,0-0.1,0h-0.1l-0.5,0.1l-0.6,0.1h-0.3 c-0.5,0-0.9,0.1-1.2,0.1l-0.1,0l-0.1,0c-0.1,0-0.1,0-0.2,0h-0.1l-0.1-0.2l0-0.1l0-0.1l0,0l0,0c-0.1-0.1-0.1-0.4,0-0.6l0.1-0.3 L338.2,36.3z"></path> <path class="st0" d="M362.5,18.7l-0.9,0.9l0,0l-0.2,0.2l-0.3,0.3l0,0.1l-1,0.9l-0.1,0.2l-1.1,1.2l-0.4,0.4l-0.2,0.2l-0.1,0.2 l-0.3,0.3l-0.1,0.1l-0.3,0.4l-0.4,0.4l-0.1,0.3l-0.4,0.5l-0.6,0.5l-1.5,1.7l-0.3,0.4l-0.1,0.1l-0.2,0.1l-0.1,0l-0.5,0.6l0.2,0.1 l0.1,0l0.2,0.1l0,0.1l0.3,0.3l0,0.3l0.3,0.4l0.3,0.2l0.2,0.3l0.1-0.2h0.2l0.1,0.2l0.2,0l0.1-0.2l0.7-0.5h0.1l0.2-0.1h0.1l0.1-0.2 l0.1-0.1h0.1l0.2-0.2l0.3-0.1l0.1-0.2l0.3-0.2l0.3-0.2l1-0.7l0.2-0.3h0.1l0.9-0.3l0.7-0.4l0.2-0.3l0.1,0h0.2l0.1-0.1l0.8-0.4h0.1h0 l0.1-0.1l1.1-0.4l0.1-0.1l0.3-0.1l0.3-0.1l1.1-0.4l0.2-0.1h0.1l0.1,0l0.3,0c0.3-0.1,0.7-0.1,1-0.1l0.4-0.1l0.7,0l0.5,0.4l0.4,0.2 l0.1,0.4l0,0.1l0.1,0l0.2,0.2L370,26h0l-0.2,0.4l-0.5,0.3l-0.6-0.2h-0.1l-0.4-0.5l-0.3-0.5l-0.2-0.1l-0.3,0.1h0l-0.4-0.1l-1.3,0 l-0.7,0.4l-0.2,0l0,0h-0.2l-0.3,0h-0.1l-0.5,0.2l-0.3,0.1l-0.8,0.1c-0.9,0.4-1.8,0.9-2.6,1.4l-0.1,0.1l-0.1,0l-0.2,0.1l0,0.1h-0.1 c0,0,0,0-0.1,0.1l0,0l-0.6,0.5l-0.2,0l-1.4,1.2l-0.5,0.4l-0.4,0.4l-0.7,0.4l0.7,0.8l0.2,0.2l0.5,0.5l0.3,0.3l0.8,1l0.2,0.1l1.7,2.1 l0.3,0.2l0.2,0.3l0.2,0.1l0.4,0.5l0.1,0.3l0.1,0.1l0.7,0.8l0.1,0.2l0.2,0.2l0,0.2l0.2,0.1l0.2,0.2l0,0.1l0.2,0.2l0.3,0.2l0.2,0.2 l0.3,0.3l0.3,0.4l1,1.3l0.3,0.2l0,0.3l-0.2,0.1h-0.2l-0.1-0.1l-0.1-0.3l-0.2-0.1l0-0.1l-0.2,0l-0.4-0.4l-0.1-0.2l-1-1.3l-0.5-0.4 l-0.4-0.3l-0.2-0.4l-0.2-0.4l-0.7-1l-0.3-0.2l-0.5-0.7l-0.3-0.2l-0.6-0.8l-0.4-0.4l-1-1.1l-1.2-1.3l-0.4-0.3h0l-0.4-0.5l-0.4-0.4 l-0.1-0.1l-0.5,0.4l-0.3,0.3l-0.7,0.5l-0.3,0.3l-0.9,0.5l-0.5,0.5l-0.6,0.2c-0.3,0.2-0.6,0.4-0.9,0.6c-0.1,0-1.2,1.2-2.3,1.7l0,0.1 l-0.1,0.1l-0.2,0.3l-0.8,0.6l-0.5-0.1l-0.4-0.3l-0.1-0.2l0.1-0.4h-0.1l-0.1-0.1h0.2l0.1-0.2l0.1-0.3l0.2-0.4h0l0.1-0.4l0.7-0.8 l0.4-1L348,33l0.3-0.2l0.5-0.5l0.4-0.4l0.4-0.5l0-0.3l0.5-0.3l0.2-0.2l0.1-0.3l0.1-0.1l0.2-0.1l0.4-0.4l0.2-0.3l0.2-0.3l-0.2-0.1 l-0.2-0.6l0.2-0.4l0.3-0.3l0.3,0h0.2l0-0.1h0.1l0,0.1l0.1,0.1l0.2,0.1l0.2,0.1l1.9-2.1l1.7-1.6l1.5-1.8l1.2-1.1l0.5-0.5h0l1.6-1.6 l0.2-0.3l1-1l0.5-0.7l1.4-1.6l1.3-1.8l0.4-0.4l0.4-0.5l1.3-1.4l0.7-1l0.5-0.6l0.6-0.8l0.2-0.3l0-0.2h-0.1l0-0.1h0.1l0.1-0.7 l0.2-0.7l0.1-0.3l0.6-0.8l0.8-0.5l0.4,0.1l0.4,0.2l0,0.2c0.2,0,0.3,0,0.3,0.2c-0.2,0.7-0.8,1.3-1.2,1.9l-0.5,1.1l-0.5,0.4L370,9.8 l-0.4,0.4l-0.1,0.1l-0.6,0.7l-0.3,0.5c-0.2,0.3-0.5,0.6-0.7,0.9h0.1l0,0.1h-0.1l0,0l-0.1,0.1l-0.1,0.2l-0.4,0.4L367,14l-0.2,0.2 l-0.1,0.1l-0.3,0.2l-0.2,0.2l-0.5,0.5l-0.1,0.2l0,0l-0.1,0l-0.5,0.5l-0.1,0.2l-0.4,0.3l-0.2,0.2L364,17l-0.4,0.5l-0.2,0.2 L362.5,18.7z M350.7,33.7l0.4-0.3l0.1-0.2l0.4-0.3l0.2-0.2l0.7-0.5l0.1-0.2l1.7-1.1l0,0l-0.3-0.4l-0.5-0.6l-0.2-0.1l-0.2-0.1h-0.2 l0,0.1h0l0-0.1l-0.5,0h0l-0.5,0.5l-0.5,0.7l-1.3,1.5l-0.5,1l-0.6,0.8l-0.1,0.3l0.2,0.2l1.2-0.7L350.7,33.7z"></path> <path class="st0" d="M384.7,36.3c0.1-0.2,0.1-0.3,0.2-0.5l0-0.1l0.1-0.1l0.2-0.4l0.1-0.2l0.1-0.2c0,0,0.1-0.1,0.1-0.2l0-0.1 c0.3-0.5,0.6-1,0.9-1.5l0.1-0.2l0.1-0.2l0.2-0.4l0.1-0.1l0.2-0.4l0.1-0.2l0.2-0.3l0-0.3l-0.1-0.1l-0.1-0.2l-0.2,0.1h-0.1l-0.6,0.2 l-0.9,0.3l-0.1,0.1l-0.3,0.1l-0.4,0.2l-1.1,0.5l-0.8,0.5l-0.3,0.1l-2.6,1.4l-0.2,0.2h-0.1l-0.1,0.2l-1.3,0.7l-0.5,0.2l-0.1,0.1 l-1.7,0.9l-0.1,0.1l-0.1,0l-0.2,0.2l-0.1,0l0,0l-0.4,0.2l-0.1,0.1H375l-0.2,0.2l-0.1,0l0,0l-0.1,0l-0.1,0l-0.2,0.1l-0.3,0.2l-0.2,0 l-0.3,0.1l-0.3,0.2l-0.1,0.1l-0.3,0.2l-0.6,0.1l-0.3,0.1l0,0l-0.1,0.1l0,0h0l-0.3,0.1h-0.1l0,0.1l0,0l0,0l0,0H371l-1.2-0.1l0,0 h-0.3l-0.2-0.1l-0.4-0.2c-0.1,0-0.1,0-0.2,0l0,0l0,0l-0.1-0.2c0-0.2,0-0.4,0.1-0.5l0-0.3l0.2-0.8l0.1-0.3l0.2-0.2l0.1-0.3l0.1-0.1 l0.2-0.3l0.1-0.2l0.3-0.3l0.6-0.9l0.1-0.3l0.3-0.3l0.2-0.3l0.2-0.4l0.3-0.4l0.2-0.2l0.3-0.2l0-0.1l0.1-0.1l0.2-0.3l0-0.1h0l0.2-0.3 l0.6-0.6l0.2-0.3l0.1-0.1l0-0.1l0.1-0.4l0-0.5l0.1-0.3l-0.1-0.3l0-0.2l0.1-0.3l0.3-0.2l0.5-0.6l0.4-0.3h0.3l0.2,0.2l0,0 c0,0,0,0,0,0c0.1,0.2,0.1,0.4,0.1,0.6l0,0l0,0.7l-0.2,0.5l-0.2,0.3l-0.4,0.5l-0.4,0.8l-0.3,0.2l-0.1,0.1l-0.3,0.3l-0.3,0.3 l-0.2,0.1l0,0.1l-0.2,0.2L373,32l-0.1,0.1h0l-0.1,0l-1,1.1l-0.1,0.2l-0.1,0.2l-0.2,0.2c-0.2,0.3-0.5,0.6-0.6,0.9l-0.5,0.6 c-0.1,0.2-0.2,0.3-0.3,0.4l-0.2,0.3l-0.1,0.3l-0.1,0.4l-0.2,0.3l-0.1,0.3l0,0c0,0.1,0,0.3,0,0.3c0.2,0.3,1.3,0.1,2.4-0.3l0.3-0.2 l0.4,0l0.6-0.3l0.3-0.1l0.3-0.2c0.6-0.3,1.2-0.5,1.8-0.8l0.3-0.2l0.3-0.1l0.4-0.2l0.3-0.1l0.4-0.3l1.1-0.4c0,0,0.1-0.1,0.1-0.1 l0.1-0.1l0.3-0.1l1-0.5l0,0l0.2-0.2l0.2,0l0.1-0.1l0.2-0.1l0.1-0.1l0.6-0.2l1.3-0.8l0.4-0.3l0.6-0.3l0.5-0.5l0.3-0.2l0.4-0.2 l0.5-0.2l0.2-0.1l0.3-0.2l1-0.4l0.2-0.1l0.4-0.2l0.3-0.3l0-0.1l0.1,0l0.2,0.1c0.2-0.1,0.5-0.3,0.7-0.3l0,0l0.4-0.2l0.1,0 c0.1,0,0.2,0.2,0.2,0.2l0.1,0l0.2,0.1l0.2,0.1l0,0.2l-0.1,0.1h0.1l0,0.1l-0.1,0l0,0.1l-0.1,0.1l-0.1,0.3l-0.4,0.4l-0.2,0.3l0,0.2 l-0.4,0.5l-0.1,0.2l-0.1,0.2L388,32l-0.1,0.1l-0.2,0.4l-0.2,0.4l-0.3,0.3l-0.1,0.2l-0.4,0.5l-0.1,0.2l-0.2,0.4l-0.1,0.3l-0.2,0.4 l-0.1,0.1c-0.2,0.5-0.4,1-0.2,1.1c0.2,0.2,0.4,0.3,0.8,0.4l0.4,0h0.3l0.2,0h0.3c0.5,0,0.9-0.1,1.5-0.2l0,0h0.2l0.6-0.2l0.2,0 l0.9-0.1l0,0h0l0.3-0.1l0.5,0l0.4,0h0c0,0,0.1,0,0.1,0h0l0.3,0l0.2,0.1l0.1,0.1l-0.2,0.1l-0.2,0l-0.1,0l-0.8,0l-0.2,0.1l-0.1,0.1 l-0.1-0.1l-0.6,0.1l-1.4,0.5l-0.4,0l-0.3,0l-0.6,0.2l-0.4,0l-0.3,0h-0.1c0,0-0.1,0-0.1,0h-0.1l-0.5,0.1l-0.6,0.1h-0.3 c-0.5,0-0.9,0.1-1.2,0.1l-0.1,0l-0.1,0c-0.1,0-0.1,0-0.2,0h-0.1l-0.1-0.2l0-0.1l0-0.1l0,0l0,0c-0.1-0.1-0.1-0.4,0-0.6l0.1-0.3 L384.7,36.3z"></path> <path class="st0" d="M395.9,33.2L396,33l0,0l0.3-0.4l0.3-0.5l0.5-0.7l0.1-0.3l1-1.2l0.2-0.3l0.1-0.2l0.6-0.9l0.5-0.7l0.4-0.6 l0.2-0.5l0-0.3h-0.1l0-0.1l0.1-0.1l0-0.7l0.1-0.8l0.1-0.3l0.4-1l0.8-0.5l0.5-0.1l0.4,0.3l0.1,0.3l0,0.3l0.2-0.1l-0.1,0.1h-0.1 l-0.1,0.1l-0.1,0.3c0,0,0,0.1,0,0.1c-0.1,0.5-0.4,1-0.7,1.5l-0.3,1.1l-0.4,0.5l-0.3,0.2l-0.5,0.6l-0.3,0.5l-0.2,0.4l-0.2,0.4 l-0.4,0.3l-0.1,0.2l-0.1,0.3l0,0.1l-0.2,0.1l-1,1.2l-0.1,0.3l-0.5,0.6l-0.3,0.6l-1,1.4l-0.2,0.3l-0.5,0.7l0,0l-0.1,0.2l-0.1,0 L395,36l-0.2,0.4c0.2-0.2,0.3-0.3,0.5-0.5l0.1-0.2l0,0l0.1-0.3l0.3-0.2l0.1-0.1l0.3-0.3l0.3-0.2l0.4-0.4l0.2-0.1 c0.6-0.5,1.2-1,1.8-1.5l0.2-0.3l0.1-0.1l0.4-0.3l0.3-0.2l0.7-0.5l0.1-0.1l1-0.6l0.2-0.1c0.4-0.2,0.7-0.4,1.1-0.5 c0.3-0.1,0.9-0.4,1.4-0.3l0,0l0.8,0l0.3,0.3l0.4,0.4L406,31l0,0.3l-0.1,0.4l-0.1,0.5l-0.1,0.3l0,0.3l-0.3,1l0,0.1l0.3,0.4l0.1,0.5 l0.1,0.1l-0.1,0.1l-0.1,0.3l0,0.3l0.1,0.3l0.2,0.2l0.3,0.3c0.6,0,1.3,0,2.1-0.2l0.9-0.3l0.3,0l0.6-0.2l0.3,0l0.8-0.3l0.6-0.3l0.4,0 l0.4-0.1l0.7-0.3c0.5-0.2,1-0.5,1.6-0.7l0.4-0.3l0.2,0l1-0.5l0.3-0.2l0.4-0.3l0.4-0.2l1.2-0.5l1.5-0.8l0.2-0.2l0.6-0.3h0.1l0-0.1 h0.1l0.4-0.3l0.1-0.1h0.3l0.1,0.2l0,0.2l-0.1,0.1l-0.2,0.1c-0.7,0.4-1.4,0.9-2.1,1.3l-0.4,0.3l-0.3,0.1l-0.3,0.2h-0.1l-0.5,0.3 l-0.1,0.1l-0.2,0c0,0-0.1,0-0.1,0.1l-0.1,0.1l-0.2,0.1h0c-0.4,0.3-0.9,0.5-1.4,0.7l-0.7,0.4l-1.8,0.9l-0.2,0l0,0l-0.6,0.5l-0.5,0.3 l-0.6,0.1l-0.6,0.3l-0.3,0.1l-0.4,0.1l-0.5,0.1l-0.3,0l-0.2,0.1l-0.2,0l-0.1,0c-0.3,0.1-0.7,0.1-1,0.2l-0.5,0l-0.2,0.1l-0.2,0 l-0.3-0.1l-0.3,0.1l-0.3,0h-0.1c-0.5,0-0.9-0.4-1.3-0.6c-0.2-0.1-0.4-0.3-0.5-0.5l0-0.2c0-0.2,0-0.4,0-0.7l0-0.4l0.2-0.5l0.3-0.7h0 l0.1-0.1l0.5-1.5h0l-0.1-0.1l0.2-0.3c0.1-0.6,0-1.1-0.5-1.3c-0.2,0-0.3-0.2-0.7,0l-0.4,0.2l-0.4,0.3c0,0,0,0-0.1,0l-0.9,0.6 l-0.1,0.1l-0.1,0.1l-0.7,0.7l-0.3,0.2l-0.1,0.3l-1.4,1l-0.2,0l-0.3,0.2l-0.2,0l-0.2,0.3l-0.4,0.3l-0.1,0.1l-0.3,0.2l-0.3,0.3 l-0.2,0.1l-0.2,0.3l-0.4,0.3l-0.4,0.3c-0.7,0.6-1.3,1.3-2,1.9l-0.2,0.2l0,0l-0.4,0.3c0,0,0,0-0.1,0l0,0.1l-0.1,0l0,0.1l0,0.1 l-0.1-0.1l-0.1,0.2l-0.2,0l-0.3-0.1l-0.1-0.4l0.1-0.8l0.3-0.7l0.2-0.2l0.4-0.4L394,36l0-0.1h0l0.1,0l0-0.2l0.1-0.1l0.2-0.3l0.2-0.5 l0.2-0.3l0.1-0.2l0.7-0.9L395.9,33.2z"></path> <path class="st0" d="M424.8,32.4l-0.1,0.3l-0.1,0.2l-0.1,0.1l-0.3,0.1c-0.2,0.4-0.5,0.8-0.7,1.1l0,0.1l-0.1,0.2l-0.3,0.3 c0,0,0,0,0,0c0.2,0.3,0.4,0.6,0.5,0.9l0.1,0.1l0.2,0.3l0.1,0.1l0.2,0.1l0,0.1l0,0.3l0.1,0.3l0,0.4l0.1,0.3l0.1,0.1l0,0 c0.2,0.6,0.2,1.2,0.3,1.8l0,0.1l0.1,0.4l-0.1,0.3l0.2,0.7l0,0.5l-0.2,0.6l0,0.7l0,0.3l-0.1,0.4l-0.2,0.5l-0.1,0.3l-0.1,0.3 l-0.3,0.7l0,0.1c-0.1,0.2-0.1,0.5-0.2,0.7l0.1,0.4l0.1,0.1l-0.1,0.1l-0.3,0.2l-0.1,0.3l-0.1,0.4l0,0.2l-0.1,0.1l-0.1,0.1l-0.5,0.6 c-0.2,0.4-0.3,0.7-0.5,1.1l0.1,0.2l-0.1,0.2l-0.4,0.3l-0.3,0.5l0,0.1l-0.1,0l-0.2,0.4l-0.1,0.3l-0.1,0.1l-0.1,0.4l-0.2,0.4 l-0.1,0.4l-0.2,0.5l-0.1,0.2l-0.4,0.5l-0.1,0.3l-0.3,0.3l-0.4,0.3l-0.1,0.2l-0.4,0.5l-0.3,0.6l-0.3,0.3l-0.1,0.2l-0.4,0.5l-0.1,0.2 l-0.6,0.8l-0.8,0.7c-1.3,1.7-2.7,3.3-4.2,4.9l-0.1,0.2l-0.4,0.5L411,65l-0.2,0.2l-0.3,0.3l-0.6,0.6l-0.2,0.3l-0.4,0.3l-1,1.2l0,0 l0,0.1l-0.1,0l-1.5,1.6c0,0.1-0.1,0.2-0.2,0.3l0,0.1l0.1,0.2l-0.2-0.1l0,0l0,0.1l-0.2,0.3h0l-0.5,0.6l-1.1,1.3l-0.4,0.5l-1.3,0.9 l-1.3,0.8l0.2,0.1l-0.1,0.2l0,0.1l-0.1,0l0-0.1l-0.3,0.1l-0.1,0l0,0l0,0h-0.2l-0.3-0.4l-0.1-0.5c0.1-0.2,0.2-0.4,0.3-0.6l0-0.4l0,0 l-0.1,0l0-0.3l-0.1-0.4l0.1-0.4l0-0.1l0.1-0.2l0-0.1l-0.1-0.1l0,0l0,0l0.1-0.3l0-0.1l0.1,0l0.1-0.2l0.1,0l0,0l0.2-0.4l0-0.3l0-0.3 l0.1-0.3l0.3-0.5l0.3-0.5l0.2-0.5c0.1-0.5,0.3-1,0.5-1.5l0-0.1l0.1-0.3h0c0.1-0.3,0.3-0.5,0.4-0.8c0.7-1.1,1.3-2.3,1.8-3.4l0.2-0.8 l0-0.2l0.4-0.3l0.2-0.5l0-0.1l0.1-0.1l0.5-0.8c0.2-0.4,0.4-0.8,0.6-1.1l0-0.1l0.1-0.2l0.1-0.2l0.1-0.1l0.4-0.7l0.1-0.1l0.8-1.3 l0-0.1l0.2-0.3l0.1-0.2l0.2-0.4l0.6-1l0.2-0.2l0.3-0.5l0.7-1.1l0.1-0.3l0.4-0.5l1-1.5l0.2-0.4l0.2-0.3l0.1-0.2 c0.1-0.1,0.1-0.3,0.2-0.3l0.2-0.4l1.3-1.8l0.3-0.6l0.8-0.9l1.3-1.8l1.1-1.6l0.5-1l0.3-0.4l0.3-0.3l1.9-2.7l0.3-0.5h0.1l0.2-0.3 l0-0.1l0.1-0.1l0.4-0.5c-0.1-0.1-0.1-0.2-0.2-0.3l-0.2-0.4l-0.2-0.2l0-0.2l-0.1-0.1l-0.1-0.2l-0.1-0.1l-0.3-0.4l-0.5-0.6 c-0.7-0.6-2.5-0.3-2.9-1.3l-0.2-0.1l0-0.2l0.1-0.2l0.1-0.2h0l0.3-0.2h0l0-0.1l0.2-0.1l0.3-0.2l0.3-0.1h0l0,0l0.1,0l0.1,0l0-0.1h0 l0,0h0.3l0,0c0.1,0,0.2,0,0.3,0c0.8-0.2,1.1-0.2,1.6-0.2l0.4-0.2l1.7-0.4l0.6-0.1l1-0.2l0.5-0.1l0.3-0.1l0.3-0.1l0.3-0.3h0.1 l0.2,0.1h0.2l0.3,0c0,0,0,0,0-0.1l0.9-1.6l0.5-0.5l0.1-0.2l0.4-0.3l0.4-0.5l2-3.2c0.1-0.3,0.3-0.5,0.5-0.8l0-0.1l0.1-0.2l0.3-0.2 l0.5-0.7l0.4-0.5l0.2-0.2l0.4-0.5l0.3-0.4c0.4-0.9,1.2-1.7,1.7-2.5c0.3-0.6,0.8-1,1.3-1.5l0.1-0.1l0.4-0.4l0.1-0.2 c0.4-0.6,1-1.2,1.5-1.8l0.1-0.2l1.1-1.2l0.3-0.5l1.1-1.3l0.6-0.6l0,0l0.1-0.3l0.2,0l0.1-0.2l0.6-0.7l0.3-0.5l0.3-0.5l0.2-0.3 l0.2-0.2h0.2l0.1-0.2l-0.1,0l0-0.1l0.2-0.3h0.2l0-0.2l0.1-0.1l0.1-0.2l0-0.1l0.2-0.3l0-0.1l0.1,0.1l0.2-0.1l0.1-0.1h0.1l0,0 l0.4-0.3l0.4-0.1l0.2-0.1l0,0.1l0.1-0.1l0.4-0.3l0.2-0.2l0.1-0.1l0-0.1h0.1l0,0.1l0.4-0.1h0.3l0.3,0.4l0.2,0.5l-0.4,0.9l-1.3,0.4 L447,5.1l-0.4,0.4l-0.3,0.5l-0.2,0.4l-1,0.2l-0.5,0.5l0.1,0.2l-0.2-0.1l-0.1,0l-0.8,1.2c-1.4,1.5-3.4,3.7-4.7,5.3 c-0.8,1.3-1.5,1.7-2.4,2.9c-1.7,1.9-2.9,4.2-4.8,6l-0.4,0.5c-0.3,0.5-0.6,1-1,1.3l-0.2,0.4l-0.6,0.7l-1.1,1.7l-0.1,0.2l0,0.1 l-0.1,0.1l-0.1,0l-0.4,0.6h0.1l0.3,0c1.5-0.4,2.9-0.8,3.7-0.8h0.5c0.8-0.1,1.8-0.2,3-0.3c0.3,0,0.7-0.1,1.1-0.2c0.3,0,0.7,0,1-0.1 c0.5,0,1.6-0.1,2.5-0.2c0.3,0,1.4,0,1.4,0.1l0.1,0l0.1,0.2l-0.2,0.1h-1.3h0l-1.4,0.1l-0.3,0.1h0c-0.5,0-1,0-1.5,0.2l0,0 c-0.4,0-0.7,0-0.9,0.1l-0.1,0h-0.5c-0.6,0-2.4,0.3-2.9,0.3l-0.2,0.3L432,28h-0.3l-0.1,0l-0.2,0.2h-0.1c-0.8,0.1-1.7,0.3-2.5,0.6 L428,29l-0.8,0.2H427c-0.2,0.2-0.3,0.3-0.4,0.5L424.8,32.4z M421.4,49.5l0.3-0.4l0.3-0.4l0.1-0.1l0,0l0.3-0.6l0-0.1l0.5-1.1 l0.2-0.5l0.2-0.7l0.1-0.5l0.1-0.6l0.2-0.5l0.1-0.4l0.3-0.8c0.1-0.9,0.2-1.9,0.2-2.8l0,0l0-0.4v-0.6l-0.1-0.5l0-0.2l-0.3-0.8 l-0.1-0.3l-0.1-0.1l-0.1-0.3c-0.3-0.4-0.6-0.7-0.9-1.1h0l-0.4,0.6l-0.1,0.1l0,0l-0.2,0.2l0,0.3l-0.4,0.4l-0.2,0.3l-0.3,0.5 l-0.1,0.1l-1.3,1.8c-0.6,0.9-1.5,1.5-2.2,2.4c-0.5,0.7-0.9,1.4-1.4,2.1l-0.1,0.3l-0.2,0.3c0,0-0.1,0.1-0.1,0.1l-0.2,0.5l-0.4,0.6 l-1.1,1.7l-0.5,1.1l-0.5,0.6c-0.1,0.2-0.2,0.4-0.3,0.5l0,0.1l-0.2,0.3l-1,1.7l-0.1,0.4l-0.4,0.3l-0.3,0.6l-0.2,0.5l-0.7,1.1 l-0.8,1.4l-0.3,0.6l-0.4,0.5c-0.3,0.4-0.5,0.9-0.8,1.3l-1.8,3.1l-0.5,1l-0.3,0.3c-1.3,2.2-1.8,5.3-2.5,7.6l0,0l0.1,0.2l0,0.5l0,0.1 l0.8-0.5l2.5-2.3l0.2-0.1l0.4-0.3l1.3-1.7l0.5-0.5l0.4-0.5l1.7-1.8l1.5-1.5l0.7-0.7l1-1.2l0.4-0.3l0.9-1l0.3-0.3l0,0l0,0l1.3-1.5 l0.7-1.3l0.5-0.3l0.9-1.3l0-0.1l0.1-0.1l0.1-0.1l0.1-0.2h0l0,0l0-0.1l0.2-0.2c0.3-0.5,0.7-1,1-1.5l0.5-0.8l0-0.1l0.1,0l0-0.1 l0.2-0.4l0-0.1l0.6-1.1L421.4,49.5z M424.1,29.8l-0.8,0.1l-0.5,0.3l-0.4,0.1l-0.3,0.1l-0.6,0.1l-0.4,0.2l-0.3,0.1l-0.4,0.1l0.1,0.3 c0.9,0.3-0.2,0.5,0.4,0.9l0,0l0.1,0l0,0.1c0.3,0.3,0.5,0.5,0.7,0.7l0.1,0.1l0.2,0.1l0.2,0.2l0.1,0.1l0.1,0.4l0.2,0.2l0,0l0.9-1.3 l0.2-0.5l0.5-0.6l1.3-1.8l0.2-0.4l0.1-0.2l-0.3,0.2l-0.2,0c-0.1,0.1-0.2,0.1-0.3,0.1L424.1,29.8z"></path> <path class="st0" d="M451.1,13.4h0.7l0.2-0.2l1.2-1.5l0.1-0.1l0.5-0.7l0.2-0.2l0.3-0.4l0.1-0.1l0.5-0.6l0-0.1l0.2-0.2l0.1-0.2 l0.1-0.1l-0.1,0.1h0l0-0.1l0.1-0.1l0.2,0l0,0.1l0.2-0.2l0.2-0.2l0.2-0.3l0.1-0.1l0.2-0.3l0.6-0.4l0.4-0.4l0.2-0.1l0.1,0l0-0.1l0,0 l0,0l0,0l0.3-0.5l0.3-0.3l0.6,0l0.3,0.6l0,0.6l-0.6,0.4l-0.4,0.4l-0.3,0.5l-0.2,0.3l-0.1,0.3l-1.4,1.3l-0.4,0.3l-1.8,1.8l-1,1.1 l0.5,0l0.2-0.1h0.1l0.1,0.1l1-0.1l0-0.1h2.8L459,13h1.3l0.1,0.1h0.3l0,0.1l1.1,0.1l0.4-0.1l0.6,0.1l0.7-0.1h0.3l0.4,0l0.5,0.1 l0.3,0l0.3,0l1,0.3h0.1l0.3,0.1h0.5l0.3,0.2l0.9,0.1l0.2,0l0.2,0.2c0.2,0,0.3,0.1,0.5,0.2l0,0l0,0l1.1,0.4l0.1,0l0,0.1h0l0,0 l0.6,0.3h0.1l0.1,0.1c0,0,0.1,0.1,0.2,0.1l0.2,0l0.5,0.3l0.1,0.2l0.4,0.3h0.2l0.2,0.2l0,0.1c0.2,0.2,0.4,0.4,0.6,0.5c0,0,0,0,0,0.1 l0.1,0l0.3,0.4l0,0l0.1,0.1l0.2,0.1l0.1,0.1l-0.1,0.3l0.1,0.3l0.2,0.7l0,0.3c0,0,0,0.1,0.1,0.1c0,0.1,0,0.2-0.1,0.3l0,0l-0.1,0.3 l-0.2-0.3l0-0.1c0-0.1,0-0.2,0-0.3l-0.3-0.6l-0.2-0.8l-0.1-0.2l0,0l-0.2-0.4l-0.3-0.3c0,0,0,0,0-0.1l-0.4-0.4l-0.2-0.1l-0.5-0.4 l0,0c-0.1,0-0.2-0.1-0.3-0.2l-0.1,0l-0.1,0l-0.3-0.2l-0.3-0.1l-0.2-0.1l-0.1-0.1l0,0h-0.1l-0.1-0.1l-0.6-0.2l-0.8-0.1l-0.3-0.1 l-0.5-0.2l-0.6-0.2c-0.7-0.2-1.4-0.3-2.1-0.4l-0.1,0l-0.7-0.1l-0.3,0H464l-0.3,0l-0.7-0.1l-0.4,0l-0.3,0l-0.1,0l-0.5-0.1 c-0.3,0-0.7,0-1,0l-0.2,0l-0.1,0c-0.2,0-0.5,0-0.7,0c-1.3,0-2.7,0-4,0l-0.3,0l-0.3,0.1l0,0.1H455l-0.5,0.3h-0.2l0,0.1h-0.1 l-0.6,0.2h-2c-0.3,0.3-0.6,0.6-0.8,0.9l-0.1,0.3l-0.3,0.2c-0.3,0.3-0.5,0.6-0.8,0.9l0,0.1l-0.6,0.7l-0.7,1l-0.4,0.5l-0.8,0.8 l-0.1,0.1l-1.5,1.8l-0.3,0.4l-0.9,1l-0.1,0.2l-0.2,0.2l-0.3,0.4l-0.3,0.5l-0.2,0.2l-0.3,0.3l-0.4,0.3l-0.3,0.3l0,0l-0.1,0.2 l-0.1,0.3l-0.7,0.9l-0.2,0.5l-2.1,2.7l-0.7,0.8l-0.9,0.9l-0.2,0.2l-0.4,0.5l-0.3,0.4l-0.1,0.3l-0.5,0.6l-0.4,0.8l-0.3,0.4l-0.6,0.8 L434,37l0,0.2l-0.1,0.2l-0.4,0.5l-0.1,0.5l-0.2,0.5l-0.1,0.2l0.1,0.2l0.2,0.1l0.3,0l0.8-0.2l0.3-0.1l0.1-0.1l0.7-0.2l0.4-0.2 l0.3-0.1l0.3-0.2l0.3,0l0.4-0.1l0.2-0.1h0.2l0.1,0l1.1-0.5l0.8-0.3l0,0h0.1l0.1-0.2h0.1l0.3-0.1h0.1l0.1-0.1h0.1l1.2-0.5l0.4-0.3 l0.2,0l2-0.9l0.4-0.3l0.3-0.1l0.5-0.2l0.7-0.3h0l0.2-0.3l0.5-0.3l0.5-0.2l0.6-0.2l1.2-0.6l0,0h0l0.2-0.1l0.2-0.1l0.6-0.3h0.1l0-0.1 l0.3,0l0.2-0.2l0.1-0.1l0.2,0l0.1,0.2l0,0.1l-0.1,0.1l-0.1,0.1l-0.3,0l-0.1,0.1l-1.2,0.8l-0.3,0.2l-0.5,0.3l-0.6,0.3l-0.5,0.2 l-0.4,0.1l-0.6,0.3l-0.3,0.2l-0.1,0.1l-0.5,0.3l-0.6,0.3l-0.7,0.3l-0.2,0.1l-0.4,0.3l-0.4,0.1l-0.4,0.2l-0.2,0l-0.3,0.2l-0.2,0.1 l-0.2,0l-0.4,0.3l-0.1,0.1l-0.3,0l-0.3,0l-0.3,0.1l-0.8,0.4l-0.4,0.2l-0.6,0.2h-0.1l-0.5,0.3l-0.5,0.5l-0.4,0.3l-0.2,0h0l0,0.1 l-0.1,0.1l-0.2,0h-0.3l0.1-0.2l-0.2,0l-0.4,0.3l-0.1,0.1l-1.2,0.4l-1.6,0.5l-0.5,0l-0.1,0l-0.3-0.1l-0.2,0l-0.3-0.1l-0.1-0.3 l-0.1-0.4c0-0.2,0.1-0.5,0.1-0.7c0.1-0.3,0.2-0.8,0.5-1.3l0-0.1l0.1-0.3l0.1-0.2l0.1-0.1l0-0.2l0.1-0.1l0.2-0.3l0.1-0.1l0.3-0.3 l0.5-0.8l0.1-0.1l0.1-0.3l0.1-0.3l0.1-0.2l0.3-0.3l0.3-0.4l0.1-0.3l0.2-0.3l0.2-0.2l0-0.1l0.3-0.2l0.4-0.3l0.2-0.3l0.1-0.2l0.1-0.2 l0.3-0.2l0.6-0.7l0.1-0.1l0.1-0.1c0.2-0.2,0.4-0.5,0.6-0.7l0.3-0.4l0.4-0.5l0.3-0.4l0.3-0.3l0.1-0.1l0.1-0.1l0.2-0.2l0,0 c0.1-0.1,0.2-0.2,0.3-0.3l0-0.1l0.1-0.2l0.1-0.1l0.1-0.2l0-0.1l0.2-0.2l0-0.2l0.7-0.9l0.2-0.1c0,0,0,0,0,0l0.1-0.2l0.5-0.6l0.1-0.1 l0.2-0.3l0.4-0.3l1.7-2.2l0.2-0.2l0.7-0.9l0.1-0.1c0.2-0.2,0.4-0.4,0.5-0.7l0,0l0.1-0.1h0l0.7-0.9l0-0.2l0.7-0.8l0.1-0.1l0.2-0.3 l0.1-0.2l1-1.3l0.3-0.1l0.3-0.3l0,0l0.2-0.2l0-0.1l0.1-0.2l0.1,0l0.1-0.1l0,0l0.1-0.2l0.1-0.1l0.4-0.5h-0.1l-0.3,0.1l-0.8,0.1 l-0.5,0.1l-1.3,0.1l-1.3,0.2l-0.3,0l-0.4,0l-1.1,0.2l-0.3,0.1l-2.2,0.6l-0.4,0.2l-0.2,0.1l-0.5,0.1l-0.6,0l-0.8,0.5l-0.3,0.1 l-0.8,0.2l-0.9-0.2l-0.3-0.4l0-0.4l0.1-0.3h0c0-0.1,0.1-0.2,0.1-0.3h0.1l0-0.1l0-0.1l0.1,0.2c0.7-0.3,1.6-0.6,2.6-0.8l0.7-0.3 l0.7,0l0.2,0.1l1.7-0.2l0.1,0h0l1.1-0.1l0,0h0.1L446,14l0.1,0h0.3l0,0h0.2l1.1-0.2l0.1,0l0.2-0.1h0.2l0.7-0.1l0.1,0l0.3,0 c0.2,0,0.4-0.1,0.6-0.1l0,0h0.2h0.4L451.1,13.4z"></path> <path class="st0" d="M481.3,31.9l-1.1,0.9l0,0l-0.6,0.6L479,34l-0.3,0.2l-1.1,1l-0.4,0.4L477,36l-0.3,0.2L476,37l-0.1,0.1l-0.3,0.2 c0,0,0,0,0,0.1l-0.1,0.3l-0.2,0.2l-0.1,0c0,0,0,0,0,0.1l0,0.1l-0.2,0.2l-0.1,0.1h0l-0.1,0.1l-0.1,0.1l-0.1,0.1l0,0.1l0,0h-0.1 l0,0.4l-0.1,0.4l-0.1,0.1l-0.3,0.4l-0.4,0.3l-0.2,0l-0.1-0.1l0,0.1l-0.5-0.1l-0.2-0.3l0-0.2l0.1-0.2l0.1-0.1l0,0c0,0,0-0.1,0-0.1 l0-0.4l0.1-0.1l0-0.2l0.1-0.5l0.2-0.4l0.3-0.7l0.1-0.1l0-0.1l0.8-1.2l0.2-0.3l0.1-0.2l0.2-0.1l0.1-0.1l0.5-0.8l0.1-0.3l0.2-0.6 l0.5-0.4l0.1,0l1.8-2.7l0.2-0.5l0-0.3l0.1-0.1l0.2-0.2l0.1-0.2h0.1l0-0.2l0.5-0.5l0.2-0.1l0.3-0.4l1.5-2l0,0l0.3-0.4 c0.7-0.9,1.2-1.7,2.1-2.9l0.2-0.2l1-1.4l0.3-0.4l0.3-0.5l0.6-0.6l0.2-0.4l0.4-0.5l0.4-0.5l1.1-1.3l0.2-0.4l0.6-0.9l0.2-0.5l0.9-1.1 l0.3-0.7l1.2-1.7l1.2-1.8l0.2-0.5l0.4-0.5l1-1.5l0.7-1l0.4-0.8l0.2-0.5l0-0.2l0.1-0.3l0-0.2l0.2-0.8l0.1-0.7l0.1-0.3l0.4-0.9 l0.7-0.6h0.5l0,0l0.1-0.2l0,0c0.2-0.2,0.4-0.1,0.4,0.2L498.3,1l0,0.3l0.2-0.1l0,0.2h-0.1l-0.1,0.2l-0.1,0.2L498,2.1L497.6,3 l-0.4,1.2l-0.3,0.5l-0.2,0.1l-0.4,0.5L496,5.9L495.9,6l-0.1,0.3l-0.2,0.5c0,0.1-0.1,0.2-0.1,0.2l0,0.1h0l0,0.1h-0.1l0,0l-0.1,0.1 l-0.1,0.2L495,8l-0.2,0.6l-0.2,0.3L494.5,9l-0.2,0.3l-0.1,0.3L494,9.8l0.1,0l0,0.2L494,10h-0.1l0,0l0.1-0.1l-0.1,0.1l-0.2,0.2 l-0.1,0.2l-0.1,0l-0.4,0.6l-0.1,0.2l-0.3,0.4l-0.1,0.3l-0.5,0.6l-0.1,0.2l-0.7,1l-0.8,1.2l-0.5,0.6l-0.5,0.7l-0.1,0.1 c-0.3,0.3-0.5,0.7-0.8,1l-0.1,0.1l-0.2,0.3l-0.1,0.1l-0.8,1.1l-0.1,0.2l0,0l-0.1,0c0,0-0.1,0.1-0.1,0.1l-0.5,0.7l-0.3,0.2l-0.4,0.5 l-0.1,0.2l-0.1,0.3l-0.1,0.1l-0.1,0.1l-0.2,0.3l-0.1,0.1l-0.1,0.3l-0.1,0l-0.2,0.4l-0.8,1.2l-1,0.9l-2.1,2.8l-0.2,0.4l-0.1,0.3 l-0.1,0.4l-0.2,0.3l-0.1,0.3l-1.2,1.1l-0.3,0.4l-1.4,2.3l-0.5,0.8l-0.3,0.7l-0.2,0.3l-0.2,0.4l-0.4,0.5l0,0.2l-0.1,0.2l-0.2,0.5 l0.5-0.7l0.1-0.1l0.5-0.5l0.4-0.4l0.1-0.3l0.1-0.2l0.4-0.3l0.2-0.3l0.8-0.5l0.7-0.6l0.9-0.8l0.2-0.2l0.2-0.4l0.2-0.2l0.4,0L481,31 l0.9-0.9l0.3-0.2l0.5-0.2l0.6-0.4l0.4-0.3l0.2-0.2l0.5-0.3l0.1-0.1l0.3-0.2l0.4-0.2h0l1.1-0.7l0,0l0.4-0.3l0.3-0.2l0.4-0.3l0.4-0.3 l0.2-0.1l0.1-0.3l0.1,0l0.3,0l0.3-0.1l0.8-0.1h0.1l0.2-0.1l0-0.1l1.3-0.5l0.3-0.1h0.3c0.5-0.1,0.9-0.3,1.4-0.3l0.2,0h1l0.1,0.1 c0.5,0.1,0.9,0.3,1.4,0.6c0.1,0.1,0.2,0.2,0.1,0.4l-0.1,0.7l0,0.3l-0.3,0.6l-0.3,0.7l-0.3,0.5l-0.3,0.3l-0.5,0.7l0,0.1l-0.2,0.2 l-0.3,0.2l-0.1,0.1c-0.7,0.7-1.5,1.3-2.3,2l-0.2,0.2l-0.1,0.1l-1.6,1.3l-0.6,0.5l-0.2,0l-0.6,0.4l-0.2,0.2l-0.4,0.3l-0.5,0.2 l-0.4,0.3l-0.3,0.2l-0.3,0.2l-0.5,0.3l-0.1,0.1l-0.2,0c-0.8,0.5-1.7,0.8-2.5,1.1c0,0-0.1,0-0.1,0h0l-0.2,0.2h-0.2l-0.2,0.1 l-0.1,0.1l-0.2,0l-0.3,0l-0.4,0l-0.4,0.1l-0.3,0.1l-0.4,0.2l-0.5,0.1l-0.5,0.1l-0.4,0.1l0-0.1h-0.3l-0.3,0l-0.3-0.1l-0.2,0 l-0.1-0.1h0L477,38h0l-0.1-0.1l-0.1-0.2l-0.1-0.2l0.1-0.2l0.3-0.1l0.5-0.1l0.2-0.1h0.2l0.1,0l0.2,0.2l0.2,0.1l0.3,0.1l0.3,0.1h0.2 l0.2,0h0.1c0.1,0,0.3,0,0.4,0l0.1,0h0.4c0,0,0.1,0,0.1,0l0.5-0.1l0.8-0.2l0.2,0h0l0.2,0c0.2,0,0.3-0.1,0.5-0.2l0.1-0.1l0.5-0.2 l0.5-0.3l0.3-0.1l0.6-0.2l0.4-0.3l0.1-0.2l0.1-0.1l0.3-0.2l0.3-0.3l0.2-0.2h0.2l0.1-0.1l0.2-0.1l0.1-0.1l0.2,0l0.2-0.1l1-0.8 l0.3-0.2l0.5-0.2l0.6-0.4l0,0c0.6-0.5,1.1-0.9,1.6-1.4c0.2-0.2,0.8-0.7,1.5-1.3l0.1-0.2l0.3-0.3l0.2-0.2l0.1-0.1l0.4-0.3 c0.4-0.4,0.7-0.7,1-1.1l0,0l0.1-0.2l0.1-0.1l0-0.1l0.1-0.3L495,27l0.1-0.2l-0.1-0.3l-0.2-0.1l-0.1-0.1l0-0.1l0-0.1l0.1-0.3 l-0.5-0.4l-0.2-0.1l-0.2,0l-0.1-0.1h-0.3c-0.6,0.1-1.2,0.2-1.9,0.5l-0.2,0.1l-1.1,0.4l-0.3,0.2l-0.1,0h-0.1l-0.9,0.4l-0.2,0.1 l-0.2,0c0,0-0.1,0-0.1,0l-0.7,0.4l-1.6,0.9l-0.8,0.5l-0.4,0.4l-0.2,0.2l-0.4,0.2l-0.5,0.4l-0.7,0.5l0,0c-0.3,0.2-0.5,0.4-0.7,0.6 l-0.4,0.4L481.3,31.9z M485.3,21.7l0.2-0.3L485.3,21.7z"></path> <path class="st0" d="M505.9,35.8l-0.4,0.3l-0.6,0.3l-0.4,0.1l-0.2,0.1l0,0.1l-0.1,0.1l-0.6,0.2l-0.4,0.2l0,0.1l-0.1,0.1l-0.3,0.1 l-0.6,0.3l-0.3,0.1l-0.7,0.4l-0.3,0.1l-0.3,0.1l-0.5,0.3l-0.4,0.2l-0.3,0.1l-0.7,0.1l-0.6,0.3l-0.5,0.1l-0.7,0l-0.5,0.1l-0.8-0.2 c-0.4-0.1-0.7-0.3-0.9-0.7l-0.2-0.2l0.1-0.2c0-0.3,0-0.7,0.2-1.1l0-0.2l0.3-0.8l0.4-0.8l0.1-0.3l0.3-0.5l0.3-0.3l0.1-0.2l0.3-0.2 c0.1-0.1,0.2-0.3,0.3-0.4l0.4-0.5l0.1-0.3l0.1-0.3l0.1-0.1l0.2-0.4l0.4-0.4l0.3-0.1l0.2-0.3l0.4-0.3l0.9-1.3l0.3-0.6l0.5-0.6 l0.3-0.2l0.2-0.3l0.2-0.1l0.1-0.4l0-0.2l0.2-0.3l0.3-0.2l0.1-0.1h0.1l0-0.1l0.3-0.3l0.3-0.2c0.2-0.2,0.4-0.4,0.7-0.3 c0,0,0.1,0,0.1,0.1l0.1-0.1l0-0.1l0.3,0l0.3,0l0.3,0.2l0,0.2l-0.1,0.5l-0.3,0.5l-0.4,0.5l-0.1,0.1l-0.2,0.1h-0.1l-0.3,0.1l-0.8,0.7 l-0.1,0.2l0,0.1l-0.6,0.6c0,0.1-0.1,0.1-0.2,0.2l-0.1,0.3l-0.4,0.3l-0.3,0.4l-0.4,0.3l-0.1,0.2l-0.3,0.2l-0.2,0.3l-0.1,0.1 l-0.5,0.6l-0.7,0.7l-0.3,0.4l-0.3,0.4l-0.5,0.8c-0.4,0.4-0.4,0.4-0.5,0.5l-0.3,0.7l-0.1,0.3l-0.4,0.7l-0.3,0.9l0,0.3l-0.1,0.5 c0.1,0.4,0.1,0.4,0.1,0.5l0.2,0.1l0.3,0h0.1l0.3,0l0.3-0.1l0.3,0l0.2,0.1h0.2l0.9-0.2h0.1c0.2-0.1,0.5-0.1,0.7-0.2l0.2-0.1l0.5-0.3 l0.4-0.2l0.8-0.2l0.7-0.3l0.4-0.1l1.5-0.7l0.1-0.2h0.3l0.8-0.4l0,0l0.1-0.1l0.3-0.2h0.1l0.1-0.2l0.3-0.1l0.3-0.2l0.4-0.3l0.4-0.2 l0.5-0.3l0.1-0.1l0.5-0.3l0.2-0.1l0.2-0.1l0.9-0.5h0.1l0.3-0.2l0.2-0.1l0.2-0.1c0.1,0,0.1,0,0.1,0l0.2-0.2l0.3-0.1l0.2-0.2l0.3-0.2 l0.4-0.2l0.2-0.1c0.3-0.2,0.7-0.5,1.2-0.7l0.1-0.2h0.1l0.1,0l0.1,0.3l-0.1,0.2l-0.1,0.1l-0.3,0.1l-0.1,0.1l-0.1,0h0l0,0.1l-0.6,0.3 h-0.1l-1.3,0.8l-0.4,0.3l-0.4,0.3l-0.4,0.1l-0.3,0.1c-0.8,0.5-1.6,1-2.4,1.5l-0.2,0.2l-0.1,0.1l-0.5,0.2l-0.1,0.1l-0.1,0.1 L505.9,35.8z M510.9,16.6l-0.4,0.6l-0.2,0.2l-0.1,0.2l0,0l-0.4,0.1l-0.4,0.1l-0.3,0.1l-0.4,0.3l0,0l-0.2,0.1l-0.2,0.3l-0.4,0.1 l-0.4,0.6l-0.4,0.1l-0.2,0.2l-0.3,0.3l0,0.1l-0.5,0.3l0-0.3l0.2-0.1c0,0,0.1-0.1,0.1-0.3l0.6-0.7l-0.1-0.3l0.3-0.6l0.1-0.3l0.5-0.5 l0.3-0.3l0.1,0l0.5-0.5l0.2-0.2l0.3-0.2l0.3-0.3h0l0.2-0.2h-0.1l0.2-0.1l0,0.1l0.3-0.3l0.4-0.1l0.3,0.3l0.4,0.2l-0.2,0.5l0.1,0.2 L510.9,16.6z"></path> <path class="st0" d="M516.9,37.1c0.6-0.3,1.1-0.5,1.7-0.8l0,0l2.3-1.2l0.2-0.2l0.3-0.2l0.1-0.1l0.6-0.4l0.2,0l0.1-0.1l0.9-0.5h0.2 l0.2-0.1l0.1,0l0.2-0.2l0.3-0.2l0.1,0l0.2-0.2l0.3-0.2l0.2-0.2l0.3-0.2l0.5-0.2l0.4-0.2c0.3-0.2,0.6-0.4,0.9-0.6c0,0,0.1,0,0.1,0 l0.1-0.2h0.1l0.1,0l0.1,0.2l-0.1,0.2l-0.2,0.1l-0.2,0l-0.1,0.1l-0.1,0.1h-0.1c-0.8,0.5-1.7,1-2.6,1.5l-0.3,0.3l-0.4,0.2l-0.3,0.2 c-0.2,0.1-0.4,0.2-0.6,0.3c-0.3,0.2-0.6,0.6-0.9,0.8l-1,0.5l-0.3,0.2l-0.3,0.1l-0.6,0.3l-0.1,0.1l-0.1,0.1l-0.4,0.2l-0.6,0.4 l-0.2,0.2l-0.6,0.2l-0.3,0.2l-0.1,0.1l-0.9,0.6l-0.3,0.3l-0.2,0.1l-0.4,0.3l-0.1,0.3l-0.1,0.1l-0.3,0l-0.3,0.1l-0.8,0.2l-0.8,0.2 l0,0l-0.6,0.3h-0.2l-0.1,0.1l-1,0.5h-0.1l-0.2,0.1H511l-0.1,0.1l-0.2,0.1h0l-0.2,0l-0.1,0h-0.1l-0.1-0.1l-0.2-0.1l-0.6-0.2l-0.2,0 L509,40c-0.2-0.3-0.3-0.6-0.4-1c0-0.5,0.1-0.9,0.3-1.4h-0.1l0,0h0l0.1-0.1l0.1-0.2l0.1-0.3l0.4-0.6l0.3-1l0.3-0.4l0.2-0.1l0.3-0.4 l0.2-0.4l0.3-0.7h0.1l0.2-0.1l0.1-0.1l0.1-0.2l0.1,0l0.7-0.9l0.1-0.2l0.4-0.5l0.2-0.4l0.8-1l0.1-0.2l1.8-2.3l0.2-0.4l0.3-0.3l0-0.1 L517,26l0.2-0.2l0.1-0.2l0.7-0.9l0.2-0.1l0.1-0.2l0.1,0l0.1-0.2l0-0.1l0.2-0.3l0,0l0.1-0.2l0.1-0.2l0.3-0.2l0,0l0.1-0.3l0.3-0.3 l0.4-0.3l0.2-0.2l0.8-1l0,0l0.1-0.2l0.2-0.4l0.1-0.1h0.1c0.1-0.2,0.3-0.4,0.5-0.6l0.2-0.3l0.2-0.4l0.3-0.3l0.2-0.2l0.2-0.2l0.2-0.1 c0,0,0-0.1,0.1-0.1l0-0.1l0.2-0.2l0.2-0.2l0-0.2l0.2-0.2l0-0.1l0.7-0.9l0.1-0.1L525,16l0.4-0.5l0.1,0l0.3-0.3l0.2-0.2l1.6-2 l0.2-0.2l0.6-0.9l0.3-0.3l0.4-0.5l0.2-0.2l0.6-0.8l0.1-0.1l0,0l0.2-0.1l0-0.1l0.1-0.2l0.1-0.1l-0.2,0.1l0-0.1l0,0l0.1-0.2l0.2,0 l0,0.2l0.2-0.3l0.3-0.3l0.2-0.3l0.1-0.2l0.3-0.4l0.8-0.5l0.4-0.5l0.3-0.2l0.1-0.1l0.1-0.1l0,0h0l0.1,0l0.2,0l0.2-0.2L534,6l0.2-0.1 l0.1-0.2l0-0.1h0.1l0,0.1l0.2-0.1l0.1,0l0,0c0.1,0,0.1-0.1,0.2-0.1h0.1l0.1-0.1l0-0.1h0.1l0,0l0.2,0l0.2,0l0.2,0.2l0.2,0.4 l-0.4,0.8l-0.6,0.5l-0.7,0.4l-0.2,0.3l-0.9,0.3l-0.2,0.1l-0.3,0.5l-0.6,0.5l-0.1,0.1l-0.7,0.7l-1.1,1.4l-0.4,0.3l-0.3,0.4l-0.6,0.6 l0,0l-0.6,0.7l-0.3,0.3l-1,1.3l-0.6,0.5l-0.7,0.9l-0.9,1.2l-0.4,0.3l-1.9,2.5l-0.3,0.4l-0.3,0.5l-0.4,0.4l-0.5,0.5l-1.3,1.5 l-0.1,0.3l-0.4,0.6l-0.1,0l0,0.2l-0.3,0.1l-0.1,0.3l-0.2,0.2l-0.2,0.1h0l-0.9,1.2l-0.5,0.6l-0.1,0.3l-0.1,0.4l-0.1,0.2l-0.4,0.4 l-0.2,0.1l-0.1,0.4l-0.4,0.3l-0.4,0.4l-0.4,0.7l-0.2,0.1l-0.4,0.5l0,0.1l-0.4,0.5l-0.5,0.7c0,0,0,0,0,0l-0.5,0.8 c0,0-0.1,0.1-0.1,0.1l-0.2,0.5l-0.3,0.5l-0.2,0.2l-1.2,2l-0.1,0.5l-0.1,0.2l-0.3,0.6L510,38l-0.1,0.2l-0.1,0.6l0.1,0.3l0.2,0.2 l0.1,0.1l0.1,0l0.4,0.2h0.3l0.6-0.2l0.2-0.1l0.4-0.1l0.1-0.1l0.5-0.2l0.8-0.3l0.1-0.1l0.4-0.1l0.3-0.2L515,38l0.4-0.2l0.8-0.4 L516.9,37.1L516.9,37.1z"></path> <path class="st0" d="M544.3,39l-0.4,0.1l-0.3,0.3l-0.1,0.2l-0.4,0.1l-0.7,0.3l-0.6,0.3l-0.3,0l-0.1,0l-0.1,0.1l0,0.1l0,0l0,0h-0.2 l-0.5,0.3l-0.4,0c-0.1,0-0.1,0-0.2,0l-0.3,0l-0.7,0l-0.3-0.4l0-0.1l-0.3-0.4l-0.3-0.6l0.1-0.2l-0.2-0.4l0.2-1.1 c0-0.5,0.2-0.8,0.3-1.3l0-0.2l0.1-0.2l0,0l0.1-0.8l0.3-0.8l0.1-0.3l0.1-0.3l0.1-0.1l0.1-0.1l0-0.1c0,0,0,0,0,0l0-0.3l0.1-0.2 l0.2-0.2l0.4-0.9l0.1-0.2l0.1-0.2l0.1-0.2l0,0l0.2-0.4l0.1-0.1l0,0l0.1-0.2l0.1-0.2l0.1-0.1l0-0.1l-0.1-0.1l0.1-0.2l0-0.1l0.2-0.4 l-0.1-0.5l0-0.2l-0.1-0.4l-0.1-0.2c0,0-0.1,0-0.1-0.1l-0.2-0.3l-0.9,0.9l-0.7,0.8l-1,0.7l-0.7,0.6l-0.4,0.4l-0.1,0.1l-0.1,0 l-1.3,1.2l-0.1,0l-0.4,0.4l-0.2,0.2c-0.4,0.3-0.7,0.5-1,0.8l-0.4,0.5l-0.3,0.4l-0.6,0.3l-0.5,0.5l-0.3,0.2l-0.4,0.3l-0.5,0.3 l-0.2,0.2l-0.3,0.2l-0.4,0.2l-1.3,0.8l0,0.1l-0.1,0.1h-0.1l-0.3,0.2l-0.1,0c-1.2,0.7-2.5,1.2-3.5,1.2c-0.3,0-1-0.4-1.1-0.4 c0-0.1-0.1-0.2-0.1-0.3h0l-0.3-0.5l0-0.8l0.1-0.5l0.2-0.4l0.3-0.5l0.1-0.3l0.3-0.3l0.5-1l0-0.1l0.2-0.3l0.8-0.8l0.3-0.2l0.1-0.5 l0.1-0.1l0.2-0.2l1.9-1.6h0c0.5-0.5,1.1-1,1.6-1.4l0,0l0.4-0.3l0.3-0.1l0.6-0.4L531,28l0.3-0.2l0.4-0.2l0.5-0.2l0.5-0.4l0.1,0h0.1 c0.5-0.3,1-0.5,1.5-0.7l0.1-0.1l0.1-0.1h0.2l0.5-0.2l0.5-0.3l0.2,0h0.3c0.3-0.1,0.5-0.2,0.8-0.3c0.6-0.2,1.2-0.1,1.8,0h0.3l0.3,0.1 h0.3c0.1,0,0.1,0,0.2,0.1l0.3,0.9l0.2-0.2l0.1-0.3l0.4-0.1l1-0.9l0.2-0.3l0.3-0.1l1.1-1l0.6-0.7l0.8-0.7l0.8-0.8l0.9-0.9l1.2-1.3 l0,0h0l0.8-0.8l0.5-0.7l0.4-0.5l0.2-0.2l0.1-0.3l0.5-0.5l0-0.1l0.3-0.2l0.1-0.3l0.4-0.5l0.9-1l0.2-0.2l0-0.1h0l0.9-1.1l0.2-0.3 l0.2-0.2l0.1-0.2l0.3-0.4l0-0.1l0.2-0.1l0.1-0.2l0.3-0.3l0.8-1l0.3-0.3l0.2-0.3l0.8-0.9l0.2-0.3l0.8-0.9l0.5-0.5l0.2-0.3l0-0.1 l0.7-0.8l0.2-0.4l0.1-0.3l0.5-0.3l0.1-0.2l0.1-0.1l0-0.2l0.1-0.1l0-0.1l0.1-0.2l0,0l0.1,0l0.2-0.2h0.1l0,0l0.3-0.2l0.3-0.1l0.2-0.1 l0.1,0l0.3-0.1l0,0h0.2l0.1,0l0.3,0l0.2,0.4l0.1,0.2l-0.6,0.9l-0.6,0.7h0l0.3,0.1l0.1,0.3l-0.4,0.3l-0.5,0.5L561,7.1l-0.1,0 l-0.1,0.1l-0.2,0L560,7.4l-0.6,0.2h-0.1l-0.6,0.7l-0.4,0.3l-0.3,0.4l-0.5,0.2l-0.7,0.7l-0.4,0.5l-0.1,0.1l-0.3,0.3l-0.4,0.3 l-1.1,1.4l-0.6,0.8l-0.7,0.8l-0.1,0.1l-0.5,0.8l-0.2,0.2l-0.2,0.3l-0.3,0.5l0,0l-0.3,0.5l-0.2,0.5l-0.1,0.2l-0.1,0.1l-1.1,1.4 l0,0.1h0l-0.4,0.4l0,0.1l-1.6,1.9l-0.2,0.2l-0.9,1.1l0,0h0c-1.2,1.6-2.2,2.9-2.7,3.5l0,0l-0.1,0.1l-0.1,0.2l-0.1,0.2l0,0l-0.1,0 c-0.6,0.9-1.3,1.8-1.8,2.8l0,0c0,0.1-0.1,0.1-0.1,0.2h0l0,0.1l-0.1,0.1l0,0.2l-0.1,0.4l0.1,0.1l-0.1,0.1l0,0l-0.1,0.1l0,0.2 l-0.2,0.6h-0.2l0,0.1l-0.3,0.3l0,0h-0.2l-0.1,0.2l-0.4,1h0l-0.1,0.3l-0.1,0.7l-0.3,0.6l-0.2,0.8l-0.2,0.8l-0.2,0.3l-0.1,0.2 c0,0.2-0.1,0.3,0,0.5c-0.2,1.3,0.2,2,0.7,2.3l0.3,0.1l0,0c0.2,0,0.3,0.1,0.5,0.1l0.3-0.1l0.6-0.1l0.1-0.1l0.5-0.3l0.3,0h0.4h0.2 c0.9-0.4,1.9-0.9,2.7-1.4l0.6-0.4l0.3-0.2l0.1,0l0-0.1l0.1-0.1l0.3-0.2l0.4-0.2l0.5-0.3l1.1-0.9l0.5-0.2l0.7-0.5l0.2-0.2l0.7-0.5 l0.2-0.1l0.2-0.2l0.6-0.4l0,0l0.1-0.1l0.6-0.6l0.4-0.2l0.4-0.2l0,0l1.1-0.9l0.1-0.1l0.5-0.3l0.1-0.1l0,0h0.1l0.1-0.1l0.1-0.2 l0.1-0.1h0.1l0,0h0.3l0.1,0.3l-0.1,0.2l-0.2,0c0,0,0,0,0,0h0l-3,2.3l-0.1,0.2l-0.1,0.1l-0.2,0.1l-0.2,0.1c-0.7,0.5-1.5,1-2.2,1.5 l-0.7,0.5l0,0.1l-0.2,0.1l-0.3,0.3l-0.3,0.1l-2.5,1.6l-0.2,0.2l-0.6,0.4l0,0h-0.1l-0.3,0.2l-0.1,0.1l-0.1,0l0.2,0l0,0.1l-0.2,0.2 h-0.2l0.1-0.2l0,0L544.3,39z M527,32.5l-0.4,0.5l-0.4,0.3l-0.2,0.5l-0.4,0.3l-0.3,0.4l-0.2,0.6l0,0.5l-0.1,0.1l0,0.2l-0.3,0.5 l-0.1,0.5l-0.1,0.7l0,0.5l0,0.1l0.1,0.1l0.2,0h0.2l0.2-0.1c0.1-0.1,0.3-0.1,0.4-0.2l0.4-0.3l0.4-0.3l0.3-0.2l0.6-0.2l0.5-0.3 c0,0,0.1,0,0.1-0.1c0.7-0.4,1.4-0.8,1.9-1.3l0-0.1l0.5-0.3c0.1-0.1,0.3-0.2,0.4-0.3l0.4-0.3l0.2-0.2l0.7-0.6l0.3-0.3l0.1-0.2l0.2,0 l0.6-0.3c1-0.8,2-1.8,3.4-3l0.9-0.8l0.1-0.1l0.7-0.7l0.4-0.4l0,0.1l0.3-0.2l0.3-0.5l0.3-0.4l-0.2-0.5l-0.3-0.4l-0.2-0.1l-0.1-0.1 c-0.9-0.2-2.3,0.2-3.4,0.6l-0.8,0.4l-0.3,0.1l-0.3,0.1c-0.1,0-0.2,0.1-0.3,0.1c-1.1,0.6-1.9,0.7-4,2.4l-0.6,0.6l-0.4,0.5l-0.4,0.4 l0,0.1l-0.1,0.1l-0.4,0.3l-0.3,0.3l-0.4,0.4l-0.2,0.2h0l0,0.1L527,32.5z M540.7,27.7L540.7,27.7l0.1,0.2l0.2,0.2l0.1,0.2l0.2,0 l0.1,0.1l0,0l0.4-0.3l0-0.1h0l0.1-0.1h0l0,0.1h0l0.3-0.5l0-0.1l0.1-0.2l0.1-0.2l0.1-0.4l0.1-0.1l0.1-0.2l0.3-0.1l0.1-0.2l0,0 l0.5-0.8l0,0l0.2-0.3l0.4-0.5l0.1-0.1c0.8-1,1.6-2.1,2.4-3.1c-1,0.9-2.3,2.2-3.6,3.5l-0.6,0.8l-0.3,0.3h-0.1l-1.7,1.8 C540.6,27.5,540.6,27.6,540.7,27.7z"></path> <path class="st0" d="M553.8,33.9l0,0.2l-0.2,0.2l-0.1,0.2c0,0,0,0,0,0.1l0,0.1l-0.2,0.2l-0.1,1c0,0-0.1,0.6,0,0.8 c0.2,0.3,0.1,0.3,1.1,0.6l0.7,0.2h0.5l0.6-0.1l3.1-0.7l0.6-0.3l1.7-0.5l0.3-0.2l0.2-0.1h0.1l2.6-1h0.2l0.3-0.2l0.4-0.1l1.4-0.5 l0.2,0c1.5-0.6,2.2-1,3.7-1.7l0.9-0.3l0-0.1l0.3-0.1l0.8-0.3l0.8-0.3l0-0.1h0.1l0.5-0.3l0-0.1l2.3-1.4l0.2,0c0.3-0.2,0.6-0.4,1-0.6 c0.1-0.1,0.2,0,0.2,0l0,0l0.2-0.1l0.2,0l0.1,0.4l-0.2,0.1l-0.4,0.1l-0.2,0.1l-1,0.7l-0.2,0.3h-0.2l-0.2,0.1 c-0.4,0.3-0.8,0.5-1.2,0.7l0,0l-0.3,0.2l-0.2,0.1h-0.1l-1.4,0.7l0,0.1l-0.2,0l-0.3,0.2l-0.1,0l-0.6,0.4l-1.6,0.7 c-0.5,0.2-1,0.5-1.6,0.7l-0.1,0.1l-2.2,1l-0.2,0.1l-0.1-0.1l-0.5,0.3l-0.5,0.1l-0.3,0.2h0c-0.6,0.3-1.1,0.5-1.7,0.7l-0.6,0.3 l-1.3,0.6l-0.3,0.1l-0.5,0.1l-0.7,0.2l-0.4,0l-0.2,0.1l-0.2,0.1l-0.6,0.1h-0.1c-0.5,0.2-1.1,0.3-1.7,0.4l-0.1,0.1l-0.2,0h0 l-0.8,0.2l-0.2-0.1l-0.5,0.2l-1-0.2l-0.9-0.5l-0.4-0.6l-0.2-0.5l-0.1-0.6l0.1-0.7l0-0.1l0-0.1l0-0.3l0.4-1l0.3-0.5l0.4-0.7l0.3-0.4 l0.1-0.1l0.1-0.3l0.3-0.2l0.1-0.3l0.3-0.4l0.1-0.1l0.5-0.2l0.2-0.2l0.3-0.1l0.4-0.2l0.1,0l0.4-0.4l0.4-0.3l0.3-0.4l0.2-0.2l0.2-0.2 l0.2-0.1l0.3-0.1l0.1-0.1l0.2-0.2l0.3-0.1l0.2-0.1c1-0.7,2-1.4,3-2l0.1-0.1l0.4-0.3l0.6-0.2c0,0,0.1,0,0.1,0l0.5-0.3l0.3-0.2l0.1,0 l0.6-0.1c0.5-0.2,0.9-0.3,1.4-0.5l0.4-0.2h0.4l0.3-0.1l0.1,0.1c0.3,0,0.7,0,1,0l0,0l0.1,0l0.1,0l0.1,0l0,0l0.2,0.1l0,0h0l0,0.1 l0.1,0.1h0.1l0,0.1h0l0.2,0.1l0,0c0.2,0.2,0.4,0.3,0.4,0.5l0.1,0l0,0.1h0l0,0l0,0.2l0,0.2l-0.1,0.3l-0.1,0.1l0,0.2L569,27l-0.4,0.5 l-0.4,0.4l-0.5,0.3l-0.4,0.3l-1.5,0.8l-0.2,0.2l-0.3,0.1c-1,0.7-2.1,1.3-3.2,1.8l0,0.1l-1.3,0.6l-0.6,0.4l-1.1,0.5l-0.8,0.3 l-1.1,0.2l-0.7,0h-0.3l-0.2-0.1l-0.1-0.2l0.1-0.1l0.3-0.6l0.6-0.5l0.6-0.2h0.3l0.3,0.1l0.3,0.1h0.5l0.5-0.1l0.6-0.2h0.2l0.1-0.1 l1.2-0.4l1.2-0.5l0.6-0.3l0.2-0.2l0.6-0.2l0.1-0.2l0.6-0.2l0.2-0.2l0.6-0.4l2-1.6l0.2-0.2l0.1-0.3l0.1-0.1l0.3-0.6l0,0l0-0.1 l-0.1-0.2l-0.2-0.3l-0.3-0.1l-0.3-0.1h-0.5l-0.3,0l-0.2,0c-1.1,0.3-2.4,0.9-3.1,1.2l-0.5,0.3l-0.1,0.1l-0.2,0.2l-0.2,0 c0,0,0,0-0.1,0l0,0.1l-0.3,0.1l-0.1,0.1h-0.1l-1,0.5l-0.5,0.4l-0.3,0.3l-0.4,0.1l-0.2,0.1c-0.4,0.3-0.7,0.5-1.1,0.8l-0.2,0.3 l-0.6,0.5l-0.3,0.3l-0.5,0.4l-0.6,0.6l-0.6,0.7l-0.1,0.1l-0.3,0.4l-0.3,0.4l-0.4,0.4L553.8,33.9z"></path> <path class="st0" d="M573.9,33.2l0.1-0.2l0,0l0.3-0.4l0.3-0.5l0.5-0.7l0.1-0.3l1-1.2l0.2-0.3l0.1-0.2l0.6-0.9l0.5-0.7l0.4-0.6 l0.2-0.5l0-0.3h-0.1l0-0.1l0.1-0.1l0-0.7l0.1-0.8l0.1-0.3l0.4-1l0.8-0.5l0.5-0.1l0.4,0.3l0.1,0.3l0,0.3l0.2-0.1l-0.1,0.1h-0.1 l-0.1,0.1l-0.1,0.3c0,0,0,0.1,0,0.1c-0.1,0.5-0.4,1-0.7,1.5l-0.3,1.1l-0.4,0.5l-0.3,0.2l-0.5,0.6l-0.3,0.5l-0.2,0.4l-0.2,0.4 l-0.4,0.3l-0.1,0.2l-0.1,0.3l0,0.1l-0.2,0.1l-1,1.2l-0.1,0.3l-0.5,0.6l-0.3,0.6l-1,1.4l-0.2,0.3l-0.5,0.7l0,0l-0.1,0.2l-0.1,0 l-0.1,0.3l-0.2,0.4c0.2-0.2,0.3-0.3,0.5-0.5l0.1-0.2l0,0l0.1-0.3l0.3-0.2l0.1-0.1l0.3-0.3l0.3-0.2l0.4-0.4l0.2-0.1 c0.6-0.5,1.2-1,1.8-1.5l0.2-0.3l0.1-0.1l0.4-0.3l0.3-0.2l0.7-0.5l0.1-0.1l1-0.6l0.2-0.1c0.4-0.2,0.7-0.4,1.1-0.5 c0.3-0.1,0.9-0.4,1.4-0.3l0,0l0.8,0l0.3,0.3l0.4,0.4l0.1,0.7l0,0.3l-0.1,0.4l-0.1,0.5l-0.1,0.3l0,0.3l-0.3,1l0,0.1l0.3,0.4l0.1,0.5 l0.1,0.1l-0.1,0.1l-0.1,0.3l0,0.3l0.1,0.3l0.2,0.2l0.3,0.3c0.6,0,1.3,0,2.1-0.2l0.9-0.3l0.3,0l0.6-0.2l0.3,0l0.8-0.3l0.6-0.3l0.4,0 l0.4-0.1l0.7-0.3c0.5-0.2,1-0.5,1.6-0.7l0.4-0.3l0.2,0l1-0.5l0.3-0.2l0.4-0.3l0.4-0.2l1.2-0.5l1.5-0.8l0.2-0.2l0.6-0.3h0.1l0-0.1 h0.1l0.4-0.3l0.1-0.1h0.3l0.1,0.2l0,0.2l-0.1,0.1l-0.2,0.1c-0.7,0.4-1.4,0.9-2.1,1.3l-0.4,0.3l-0.3,0.1l-0.3,0.2h-0.1l-0.5,0.3 l-0.1,0.1l-0.2,0c0,0-0.1,0-0.1,0.1l-0.1,0.1l-0.2,0.1h0c-0.4,0.3-0.9,0.5-1.4,0.7l-0.7,0.4l-1.8,0.9l-0.2,0l0,0l-0.6,0.5l-0.5,0.3 l-0.6,0.1l-0.6,0.3l-0.3,0.1l-0.4,0.1l-0.5,0.1l-0.3,0l-0.2,0.1l-0.2,0l-0.1,0c-0.3,0.1-0.7,0.1-1,0.2l-0.5,0l-0.2,0.1l-0.2,0 l-0.3-0.1l-0.3,0.1l-0.3,0h-0.1c-0.5,0-0.9-0.4-1.3-0.6c-0.2-0.1-0.4-0.3-0.5-0.5l0-0.2c0-0.2,0-0.4,0-0.7l0-0.4l0.2-0.5l0.3-0.7h0 l0.1-0.1l0.5-1.5h0l-0.1-0.1l0.2-0.3c0.1-0.6,0-1.1-0.5-1.3c-0.2,0-0.3-0.2-0.7,0l-0.4,0.2l-0.4,0.3c0,0,0,0-0.1,0l-0.9,0.6 l-0.1,0.1l-0.1,0.1l-0.7,0.7l-0.3,0.2l-0.1,0.3l-1.4,1l-0.2,0l-0.3,0.2l-0.2,0l-0.2,0.3l-0.4,0.3l-0.1,0.1l-0.3,0.2l-0.3,0.3 l-0.2,0.1l-0.2,0.3l-0.4,0.3l-0.4,0.3c-0.7,0.6-1.3,1.3-2,1.9l-0.2,0.2l0,0l-0.4,0.3c0,0,0,0-0.1,0l0,0.1l-0.1,0l0,0.1l0,0.1 l-0.1-0.1l-0.1,0.2l-0.2,0l-0.3-0.1l-0.1-0.4l0.1-0.8l0.3-0.7l0.2-0.2l0.4-0.4l0.5-0.2l0-0.1h0l0.1,0l0-0.2l0.1-0.1l0.2-0.3 l0.2-0.5l0.2-0.3l0.1-0.2l0.7-0.9L573.9,33.2z"></path> </g> </svg> 