<?xml version="1.0" encoding="UTF-8"?>
<!-- Generator: Adobe Illustrator 24.3.0, SVG Export Plug-In . SVG Version: 6.00 Build 0) -->
<svg xmlns="http://www.w3.org/2000/svg" xmlns:xlink="http://www.w3.org/1999/xlink" version="1.1" id="Ebene_1" x="0px" y="0px" width="353.3px" height="60px" viewBox="0 0 353.3 60" style="enable-background:new 0 0 353.3 60;" xml:space="preserve"> <style type="text/css"> .st0{fill:#FFFFFF;} .st1{fill:url(#SVGID_1_);} .st2{fill:#F7A823;} .st3{fill:#E4003A;} </style> <g> <g> <path class="st0" d="M234.2,0.9h-8.5c-0.5,0-0.9,0.2-1.2,0.5c-0.3,0.3-0.4,0.8-0.4,1.2L222.2,23h-26.1l1.8-20.6 c0-0.6-0.2-1.1-0.5-1.2c-0.3-0.2-0.6-0.3-0.9-0.3H188c-0.5,0-0.9,0.2-1.2,0.5c-0.3,0.3-0.4,0.8-0.4,1.2l-4.8,55.1 c-0.1,1.1,0.3,1.5,1.4,1.5h8.2c1.2,0,1.8-0.4,1.8-1.5l2.1-23.6h26.1l-2.1,23.6c-0.2,1.1,0.3,1.5,1.3,1.5h8.2 c1.1,0,1.7-0.4,1.8-1.5l4.8-55.2c0-0.6,0-1.1-0.3-1.2C234.8,0.9,234.5,0.9,234.2,0.9z"/> <path class="st0" d="M298.9,0.9h-8.5c-1,0-1.7,0.6-1.7,1.7l-0.3,4.2c-2.1-1.8-4.3-3.2-6.9-4.4c-3.6-1.5-7.4-2.4-11.6-2.4 c-4.2,0-8.1,0.8-11.8,2.4c-3.8,1.5-7.2,3.8-10.1,6.5c-3,2.7-5.4,5.9-7.2,9.5c-1.8,3.6-3,7.5-3.3,11.7c-0.3,4.2,0,8,1.3,11.7 c1.2,3.6,3,6.8,5.5,9.4c2.4,2.7,5.4,4.8,9,6.5c3.4,1.5,7.3,2.4,11.4,2.4c4.2,0,8.1-0.8,11.8-2.4c2.9-1.2,5.4-2.6,7.7-4.4l-0.5,4.4 c-0.1,1,0.5,1.5,1.5,1.5h8.5c1.1,0,1.5-0.5,1.7-1.5l4.8-55.1C300.2,1.4,299.8,0.9,298.9,0.9z M279.4,43.4c-1.8,1.7-3.9,3-6.1,4.1 c-2.4,1-4.8,1.5-7.5,1.5c-2.6,0-5-0.4-7.2-1.5c-2.1-1-4.1-2.4-5.6-4c-1.5-1.7-2.6-3.8-3.3-6c-0.8-2.3-0.9-4.8-0.8-7.4 c0.3-2.7,0.9-5.1,2.1-7.5c1-2.2,2.5-4.4,4.3-6c1.8-1.7,3.9-3,6.2-4.1c2.4-1,4.8-1.5,7.5-1.5s5.1,0.5,7.2,1.5 c2.1,1.1,4,2.4,5.5,4.1s2.5,3.8,3.3,6s1,4.8,0.8,7.5c-0.3,2.6-0.9,5.1-2.1,7.4C282.5,39.8,281.2,41.7,279.4,43.4z"/> <path class="st0" d="M353.3,1.5c0-0.5-0.3-0.6-0.9-0.6h-10.2c-0.5,0-0.8,0-1.2,0.2s-0.8,0.5-1.4,0.9l-23.8,24.8l2.1-24.3 c0-0.5-0.1-0.9-0.4-1.2c-0.3-0.3-0.8-0.5-1.1-0.5h-8.2c-1,0-1.5,0.5-1.6,1.5l-4.8,55.2c-0.2,1,0.3,1.5,1.3,1.5h8.5 c1.1,0,1.5-0.5,1.7-1.5l1.3-15.6l7.8-7.7l15.8,23.4c0.3,0.5,0.6,0.8,0.9,1.1c0.3,0.3,0.6,0.4,1.2,0.4h11.4c0.6,0,0.9-0.1,1-0.6 c0.1-0.3,0.1-0.8-0.3-1.2L331,25.5l22.2-23C353.2,2.3,353.3,1.8,353.3,1.5z"/> </g> <g> <path class="st0" d="M33.2,0.9h-7.4c-1.4,0-2.1,0.6-2.1,2l-3.6,40.8c-0.2,1.5-0.8,2.7-2,3.8c-1.2,1-2.6,1.5-4.1,1.5 c-1.8,0-3.1-0.3-3.9-1c-0.9-0.8-1.5-1.2-2.1-1.7c-0.3-0.2-0.6-0.3-0.9-0.3s-0.8,0.3-1.5,0.9l-5.1,5.1c-0.3,0.3-0.5,0.6-0.6,0.9 c-0.2,0.3,0,0.8,0.3,1.2C2,55.9,4,57.4,6.2,58.5c2.3,1,4.7,1.5,7.2,1.5c2.1,0,4.1-0.3,6.2-1.1s3.9-1.8,5.7-3.3 c1.7-1.5,3.2-3.5,4.4-5.7s1.9-4.9,2.2-7.9l3.4-38.9C35.5,1.7,34.7,0.9,33.2,0.9z"/> <path class="st0" d="M97.1,18.3c-1.2-3.6-3.2-6.8-5.6-9.4c-2.6-2.7-5.6-4.8-9-6.5C79,0.9,75.2,0,71,0s-8.1,0.8-11.9,2.4 C55.4,3.9,52,6.2,49.1,8.9c-3,2.7-5.4,5.8-7.2,9.4c-1.8,3.6-3,7.5-3.3,11.7c-0.3,4.2,0,8,1.3,11.7c1.2,3.6,3,6.8,5.6,9.4 c2.4,2.7,5.4,4.8,9,6.5C58,59.1,61.9,60,65.9,60c4.2,0,8.1-0.8,11.8-2.4c3.8-1.5,7.2-3.8,10.2-6.5c3-2.7,5.4-5.8,7.2-9.4 c2-3.6,3-7.5,3.5-11.7C98.8,25.8,98.3,21.9,97.1,18.3z M86.9,30c-0.3,2.5-0.9,5.1-2.1,7.3c-1.2,2.2-2.6,4.4-4.3,6 c-1.8,1.7-3.9,3-6.2,4.1c-2.4,1-4.8,1.5-7.5,1.5c-2.6,0-4.9-0.4-7.2-1.5c-2.1-1-4-2.4-5.5-4c-1.5-1.7-2.6-3.8-3.3-6 C50,35.1,49.9,32.5,50,30c0.3-2.7,0.9-5.1,2.1-7.5c1.1-2.2,2.6-4.4,4.4-6c1.8-1.7,3.9-3,6.2-4.1c2.4-1,4.8-1.5,7.5-1.5 s5.1,0.5,7.2,1.5c2.1,1.1,4.1,2.4,5.6,4.1s2.6,3.8,3.3,6C86.9,24.9,87.1,27.3,86.9,30z"/> </g> <linearGradient id="SVGID_1_" gradientUnits="userSpaceOnUse" x1="110.6273" y1="31.925" x2="173.4499" y2="31.925" gradientTransform="matrix(1 0 0 -1 0 62)"> <stop offset="0" style="stop-color:#1A2E3C"/> <stop offset="0.3991" style="stop-color:#005577"/> <stop offset="0.7991" style="stop-color:#80CCDB"/> </linearGradient> <path class="st1" d="M173.5,5.3c0.1-2.6-1.8-4.7-4.4-4.7h-49.6c-2.5,0-4.8,2.1-5,4.7l-3.8,54.3h14.7l2.4-35 c0.3-5.1,4.8-9.3,9.9-9.3h35L173.5,5.3z"/> <path class="st2" d="M143.9,44.9h-10.1l-1,14.7h14.7l0.7-10.1C148.4,47,146.5,44.9,143.9,44.9z"/> <path class="st3" d="M140,22.7c-2.5,0-4.8,2.1-4.9,4.7l-0.8,10.2h17.5c2.6,0,4.5,2.1,4.4,4.7L155,59.7h14.7l2.2-32.2 c0.2-2.6-1.8-4.7-4.3-4.7H140V22.7z"/> </g> </svg>