<?xml version="1.0" encoding="UTF-8"?> <!-- Generator: Adobe Illustrator 24.2.1, SVG Export Plug-In . SVG Version: 6.00 Build 0) --> <svg xmlns="http://www.w3.org/2000/svg" xmlns:xlink="http://www.w3.org/1999/xlink" version="1.1" id="Ebene_1" x="0px" y="0px" width="208.1px" height="68px" viewBox="0 0 208.1 68" style="enable-background:new 0 0 208.1 68;" xml:space="preserve"> <style type="text/css"> .st0{fill:#80CCDB;} .st1{fill:#FFFFFF;} </style> <g> <g> <path class="st0" d="M84.6,68V39.5H73.2V68H56.8V0h16.4v27.5h11.5V0h16.5v68H84.6z"></path> <path class="st0" d="M139.6,68l-2.3-15.5h-12.6L122.2,68h-16.1l13.8-68h22l13.8,68H139.6z M131.1,10.8l-4.6,30.3h9.2L131.1,10.8z"></path> <path class="st0" d="M190.7,68l-13.8-33.3V68h-16.3V0h16.3v30.8L189.5,0h16.8l-13.7,32.2L208.1,68H190.7z"></path> </g> <g> <path class="st1" d="M0,68V0h4.9v68H0z"></path> <path class="st1" d="M28.1,4.2V68h-4.8V4.2H11.5V0h28.7v4.2H28.1z"></path> </g> <path class="st0" d="M46.1,52.9H35.7L34.7,68h15.1l0.7-10.3C50.7,55.1,48.7,52.9,46.1,52.9"></path> </g> </svg> 