<?xml version="1.0" encoding="UTF-8"?> <!-- Generator: Adobe Illustrator 24.2.1, SVG Export Plug-In . SVG Version: 6.00 Build 0) --> <svg xmlns="http://www.w3.org/2000/svg" xmlns:xlink="http://www.w3.org/1999/xlink" version="1.1" id="Ebene_1" x="0px" y="0px" width="207px" height="145.3px" viewBox="0 0 207 145.3" style="enable-background:new 0 0 207 145.3;" xml:space="preserve"> <style type="text/css"> .st0{fill:#F7A823;} .st1{fill:#FFFFFF;} </style> <g> <g> <path class="st0" d="M50,144.4v-28.5H38.6v28.5H22.2v-68h16.4v27.5H50V76.3h16.5v68H50z"></path> <path class="st0" d="M105,144.4l-2.3-15.5H90l-2.4,15.5H71.5l13.8-68h22l13.8,68H105z M96.5,87.1l-4.6,30.3h9.2L96.5,87.1z"></path> <path class="st0" d="M161.4,140.5c-3.1,3-7.6,4.8-16.8,4.8c-10.9,0-16.8-2.8-19.5-7.6c-1.7-3.3-1.8-7.5-1.8-11.1v-4h16.3v5.4 c0,1.5,0,5.4,4.8,5.4c4.6,0,5.2-2.6,5.2-4.7c0-2.8-0.1-4.2-0.8-5.4c-0.9-1.4-2.5-2.6-5.4-4.7l-9.8-7.1c-1.7-1.3-3.5-2.4-5.1-3.9 c-2.8-2.6-4.4-5.5-4.4-12.8c0-1.1,0-3.2,0.4-5.9c0.3-2.4,1.1-8.8,7.9-11.8c3.7-1.6,9.1-2,12.9-2c3.1,0,5.9,0.2,9,0.9 c5.6,1.3,7.5,4.2,8.6,6.6c2,4.5,1.7,9.9,1.6,14.7H149v-4.8c0-3.5-0.4-5.7-4.6-5.7c-0.5,0-1.5,0-2.6,0.8c-1.6,1.2-1.4,3.6-1.4,5.3 c0,1.8-0.1,3.6,1,5c0.4,0.6,1,1.1,2.1,1.9l14,9.7c0.8,0.5,2.9,1.8,4.8,3.8c2.7,2.7,4,5.7,4,13 C166.2,131.5,165.6,136.5,161.4,140.5z"></path> </g> <g> <path class="st1" d="M46,33.6c-3.5,4.1-9.2,4.3-12.1,4.3h-6.9v31h-4.7V1h10.6c4.1,0,8.8-0.2,12.2,2.7c3.7,3,3.7,7.4,3.7,12.4v7.7 C48.7,27.5,48.6,30.6,46,33.6z M44.1,17.9c0-6.1-0.1-9.3-2.8-11.4C39.5,5.2,38,4.9,34,4.9h-7.2V34h7.7c2.6,0,5.3-0.3,7.3-2.4 c2.6-2.6,2.2-7.2,2.2-7.8V17.9z"></path> <path class="st1" d="M81.5,69L69,35.9h-7.4V69h-4.7V1h13.2c3.5,0,6.7,0.2,9.6,2.4c4,3.1,3.8,8.1,3.8,9.4v10.6c0,0.2,0,2.8-0.4,4.3 c-1.3,4.7-5,6.4-6.6,7c-0.8,0.3-1.1,0.5-2.5,0.8L86.5,69H81.5z M78.5,14.1c0-2.9-0.2-6.5-3.1-8.1c-1.6-0.9-3.2-1-4.9-1h-8.9v26.8 h8.7c0.5,0,2.4,0,4-0.6c4.2-1.4,4.1-5.3,4.1-6.7V14.1z"></path> <path class="st1" d="M118,69l-3.5-20.7h-14.3L96.7,69h-5l12.4-68.4h6.6L123,69H118z M108.3,12.2c-0.4-2.1-0.7-4.2-1-6.4 c-0.2,2-0.5,4-0.8,5.9L101,43.9h12.6L108.3,12.2z"></path> <path class="st1" d="M153.5,69l-9.8-32.3L133.8,69H129l12.3-37.5L131.8,1h4.9l7.3,25.8L151.9,1h4.9l-10.3,30.6l12,37.4H153.5z"></path> <path class="st1" d="M165.9,69V1h4.9v68H165.9z"></path> <path class="st1" d="M204.6,65.1c-1.6,2.4-5,5-11.6,5c-2.6,0-5.7-0.5-7.8-1.6c-0.5-0.3-1.3-0.8-2.2-1.6c-1.5-1.3-2.6-2.9-3.4-4.9 c-0.7-1.9-0.8-3.5-0.8-5.5v-9.6h4.7v5.5c0,1.4-0.1,2.8,0,4.2c0.2,3.3,1.3,9.4,10,9.4c0.8,0,2.9,0,4.9-1.3c2.4-1.4,3.8-4.3,3.8-9.9 c0-5.3-1.2-7.7-2.4-9.7c-2.5-3.9-7-8.2-7.7-8.8c-4-3.9-6.4-6.6-7.8-8.6c-1.6-2.2-3.9-6.1-3.9-12.6c0-0.4,0-3.2,0.4-5.1 c0.7-3.9,2.9-9.9,12.4-9.9c1.1,0,4.9,0,8,1.9c4.7,3.1,4.7,8.9,4.7,13.8v4.9h-4.6v-6.1c0-2.4,0-3.2-0.3-4.5c-0.4-2.3-1.8-6-7.7-6 c-0.7,0-2.9,0-4.8,1.2c-2.1,1.3-3.4,4-3.4,9.1c0,6.5,1.7,9.1,5.9,13.8c1.4,1.7,3,3.4,4.6,5.1c2.4,2.4,4.8,4.7,6.9,7.4 c3.4,4.2,4.3,8,4.3,13.4C207,59.7,206,63,204.6,65.1z"></path> </g> <path class="st0" d="M11.4,129.3H1.1L0,144.4h15.1l0.7-10.3C16,131.4,14,129.3,11.4,129.3"></path> </g> </svg> 